<svg version="1.1" xmlns="http://www.w3.org/2000/svg" xmlns:xlink="http://www.w3.org/1999/xlink" width="1321.69140625" height="860"><defs/><g><g transform="translate(-302,-6) scale(1,1)"><rect fill="#C0C0C0" stroke="none" x="1271" y="223" width="349.69140625" height="184" opacity="0.2"/></g><g transform="translate(-302,-6) scale(1,1)"><rect fill="#ffffff" stroke="none" x="1264" y="216" width="349.69140625" height="184"/></g><g transform="translate(-302,-6) scale(1,1)"><path fill="none" stroke="#000000" d="M 1264 216 L 1613.69140625 216 L 1613.69140625 400 L 1264 400 L 1264 216 Z Z" stroke-miterlimit="10"/></g><g transform="translate(-302,-6) scale(1,1)"><path fill="none" stroke="#000000" d="M 1264 241 L 1613.69140625 241" stroke-miterlimit="10"/></g><g transform="translate(-302,-6) scale(1,1)"><path fill="none" stroke="#000000" d="M 1264 324 L 1613.69140625 324" stroke-miterlimit="10"/></g><g transform="translate(-302,-6) scale(1,1)"><g><path fill="none" stroke="none"/><text fill="#000000" stroke="none" font-family="Arial" font-size="13px" font-style="normal" font-weight="bold" text-decoration="none" x="1424.757080078125" y="235.5">Main</text></g></g><g transform="translate(-302,-6) scale(1,1)"><g><path fill="none" stroke="none"/><text fill="#000000" stroke="none" font-family="Arial" font-size="13px" font-style="normal" font-weight="normal" text-decoration="none" x="1269" y="258.5">+marcadoInicial: String</text></g></g><g transform="translate(-302,-6) scale(1,1)"><g><path fill="none" stroke="none"/><text fill="#000000" stroke="none" font-family="Arial" font-size="13px" font-style="normal" font-weight="normal" text-decoration="none" x="1269" y="273.5">+matrizInhibicion: String</text></g></g><g transform="translate(-302,-6) scale(1,1)"><g><path fill="none" stroke="none"/><text fill="#000000" stroke="none" font-family="Arial" font-size="13px" font-style="normal" font-weight="normal" text-decoration="none" x="1269" y="288.5">+matrizIMas: String</text></g></g><g transform="translate(-302,-6) scale(1,1)"><g><path fill="none" stroke="none"/><text fill="#000000" stroke="none" font-family="Arial" font-size="13px" font-style="normal" font-weight="normal" text-decoration="none" x="1269" y="303.5">+matrizIMenos: String</text></g></g><g transform="translate(-302,-6) scale(1,1)"><g><path fill="none" stroke="none"/><text fill="#000000" stroke="none" font-family="Arial" font-size="13px" font-style="normal" font-weight="normal" text-decoration="none" x="1269" y="318.5">+testOutput: String</text></g></g><g transform="translate(-302,-6) scale(1,1)"><g><path fill="none" stroke="none"/><text fill="#000000" stroke="none" font-family="Arial" font-size="13px" font-style="normal" font-weight="normal" text-decoration="none" x="1269" y="341.5">+main(String[])</text></g></g><g transform="translate(-302,-6) scale(1,1)"><g><path fill="none" stroke="none"/><text fill="#000000" stroke="none" font-family="Arial" font-size="13px" font-style="normal" font-weight="normal" text-decoration="none" x="1269" y="356.5">+getMatrix(String): Integer[][]()</text></g></g><g transform="translate(-302,-6) scale(1,1)"><g><path fill="none" stroke="none"/><text fill="#000000" stroke="none" font-family="Arial" font-size="13px" font-style="normal" font-weight="normal" text-decoration="none" x="1269" y="371.5">+marcadoInicial(String): LinkedHashMap&lt;String, Integer&gt;()</text></g></g><g transform="translate(-302,-6) scale(1,1)"><g><path fill="none" stroke="none"/><text fill="#000000" stroke="none" font-family="Arial" font-size="13px" font-style="normal" font-weight="normal" text-decoration="none" x="1269" y="386.5">+getTransiciones(String): ArrayList&lt;String&gt;()</text></g></g><g transform="translate(-302,-6) scale(1,1)"><rect fill="#C0C0C0" stroke="none" x="319" y="215" width="824" height="505" opacity="0.2"/></g><g transform="translate(-302,-6) scale(1,1)"><rect fill="#ffffff" stroke="none" x="312" y="208" width="824" height="505"/></g><g transform="translate(-302,-6) scale(1,1)"><path fill="none" stroke="#000000" d="M 312 208 L 1136 208 L 1136 713 L 312 713 L 312 208 Z Z" stroke-miterlimit="10"/></g><g transform="translate(-302,-6) scale(1,1)"><path fill="none" stroke="#000000" d="M 312 233 L 1136 233" stroke-miterlimit="10"/></g><g transform="translate(-302,-6) scale(1,1)"><path fill="none" stroke="#000000" d="M 312 466 L 1136 466" stroke-miterlimit="10"/></g><g transform="translate(-302,-6) scale(1,1)"><g><path fill="none" stroke="none"/><text fill="#000000" stroke="none" font-family="Arial" font-size="13px" font-style="normal" font-weight="bold" text-decoration="none" x="702.325927734375" y="227.5">Monitor</text></g></g><g transform="translate(-302,-6) scale(1,1)"><g><path fill="none" stroke="none"/><text fill="#000000" stroke="none" font-family="Arial" font-size="13px" font-style="normal" font-weight="normal" text-decoration="none" x="317" y="250.5">+matrizMas: Integer [][]</text></g></g><g transform="translate(-302,-6) scale(1,1)"><g><path fill="none" stroke="none"/><text fill="#000000" stroke="none" font-family="Arial" font-size="13px" font-style="normal" font-weight="normal" text-decoration="none" x="317" y="265.5">+matrizMenos: Integer [][]</text></g></g><g transform="translate(-302,-6) scale(1,1)"><g><path fill="none" stroke="none"/><text fill="#000000" stroke="none" font-family="Arial" font-size="13px" font-style="normal" font-weight="normal" text-decoration="none" x="317" y="280.5">+matrizInhibicion: Integer [][]</text></g></g><g transform="translate(-302,-6) scale(1,1)"><g><path fill="none" stroke="none"/><text fill="#000000" stroke="none" font-family="Arial" font-size="13px" font-style="normal" font-weight="normal" text-decoration="none" x="317" y="295.5">+marcado: Integer []</text></g></g><g transform="translate(-302,-6) scale(1,1)"><g><path fill="none" stroke="none"/><text fill="#000000" stroke="none" font-family="Arial" font-size="13px" font-style="normal" font-weight="normal" text-decoration="none" x="317" y="310.5">+marcadoInicial: LinkedHashMap&lt;String, Integer&gt;</text></g></g><g transform="translate(-302,-6) scale(1,1)"><g><path fill="none" stroke="none"/><text fill="#000000" stroke="none" font-family="Arial" font-size="13px" font-style="normal" font-weight="normal" text-decoration="none" x="317" y="325.5">+plazas: ArrayList&lt;String&gt;</text></g></g><g transform="translate(-302,-6) scale(1,1)"><g><path fill="none" stroke="none"/><text fill="#000000" stroke="none" font-family="Arial" font-size="13px" font-style="normal" font-weight="normal" text-decoration="none" x="317" y="340.5">+transiciones: ArrayList&lt;String&gt;</text></g></g><g transform="translate(-302,-6) scale(1,1)"><g><path fill="none" stroke="none"/><text fill="#000000" stroke="none" font-family="Arial" font-size="13px" font-style="normal" font-weight="normal" text-decoration="none" x="317" y="355.5">+colaCondicion: LinkedHashMap&lt;String, Condition&gt;</text></g></g><g transform="translate(-302,-6) scale(1,1)"><g><path fill="none" stroke="none"/><text fill="#000000" stroke="none" font-family="Arial" font-size="13px" font-style="normal" font-weight="normal" text-decoration="none" x="317" y="370.5">+transicionesGeneradoras: ArrayList&lt;String&gt;</text></g></g><g transform="translate(-302,-6) scale(1,1)"><g><path fill="none" stroke="none"/><text fill="#000000" stroke="none" font-family="Arial" font-size="13px" font-style="normal" font-weight="normal" text-decoration="none" x="317" y="385.5">+abordarTren:LinkedHashMap&lt;String, String&gt;</text></g></g><g transform="translate(-302,-6) scale(1,1)"><g><path fill="none" stroke="none"/><text fill="#000000" stroke="none" font-family="Arial" font-size="13px" font-style="normal" font-weight="normal" text-decoration="none" x="317" y="400.5">+descenderTren:LinkedHashMap&lt;String, String&gt;</text></g></g><g transform="translate(-302,-6) scale(1,1)"><g><path fill="none" stroke="none"/><text fill="#000000" stroke="none" font-family="Arial" font-size="13px" font-style="normal" font-weight="normal" text-decoration="none" x="317" y="415.5">+ultimaSubidaEstacion: LinkedHashMap&lt;String, Date&gt;</text></g></g><g transform="translate(-302,-6) scale(1,1)"><g><path fill="none" stroke="none"/><text fill="#000000" stroke="none" font-family="Arial" font-size="13px" font-style="normal" font-weight="normal" text-decoration="none" x="317" y="430.5">+ultimoArrivoEstacion: Date</text></g></g><g transform="translate(-302,-6) scale(1,1)"><g><path fill="none" stroke="none"/><text fill="#000000" stroke="none" font-family="Arial" font-size="13px" font-style="normal" font-weight="normal" text-decoration="none" x="317" y="445.5">+lock: ReentrantLock</text></g></g><g transform="translate(-302,-6) scale(1,1)"><g><path fill="none" stroke="none"/><text fill="#000000" stroke="none" font-family="Arial" font-size="13px" font-style="normal" font-weight="normal" text-decoration="none" x="317" y="460.5">+accionPorTransicion: HashMap&lt;String, String&gt;</text></g></g><g transform="translate(-302,-6) scale(1,1)"><g><path fill="none" stroke="none"/><text fill="#000000" stroke="none" font-family="Arial" font-size="13px" font-style="normal" font-weight="normal" text-decoration="none" x="317" y="483.5">+continuarRecorridoTren(): Long</text></g></g><g transform="translate(-302,-6) scale(1,1)"><g><path fill="none" stroke="none"/><text fill="#000000" stroke="none" font-family="Arial" font-size="13px" font-style="normal" font-weight="normal" text-decoration="none" x="317" y="498.5">+partidaTren(): void</text></g></g><g transform="translate(-302,-6) scale(1,1)"><g><path fill="none" stroke="none"/><text fill="#000000" stroke="none" font-family="Arial" font-size="13px" font-style="normal" font-weight="normal" text-decoration="none" x="317" y="513.5">+arriboTrenEstacion(): void</text></g></g><g transform="translate(-302,-6) scale(1,1)"><g><path fill="none" stroke="none"/><text fill="#000000" stroke="none" font-family="Arial" font-size="13px" font-style="normal" font-weight="normal" text-decoration="none" x="317" y="528.5">+abordarTren(): void</text></g></g><g transform="translate(-302,-6) scale(1,1)"><g><path fill="none" stroke="none"/><text fill="#000000" stroke="none" font-family="Arial" font-size="13px" font-style="normal" font-weight="normal" text-decoration="none" x="317" y="543.5">+descenderTren(): Long</text></g></g><g transform="translate(-302,-6) scale(1,1)"><g><path fill="none" stroke="none"/><text fill="#000000" stroke="none" font-family="Arial" font-size="13px" font-style="normal" font-weight="normal" text-decoration="none" x="317" y="558.5">+cruzarPasoNivel(): void</text></g></g><g transform="translate(-302,-6) scale(1,1)"><g><path fill="none" stroke="none"/><text fill="#000000" stroke="none" font-family="Arial" font-size="13px" font-style="normal" font-weight="normal" text-decoration="none" x="317" y="573.5">+liberarBarreraPasoNivel(): void</text></g></g><g transform="translate(-302,-6) scale(1,1)"><g><path fill="none" stroke="none"/><text fill="#000000" stroke="none" font-family="Arial" font-size="13px" font-style="normal" font-weight="normal" text-decoration="none" x="317" y="588.5">+generarPasajeros(): void</text></g></g><g transform="translate(-302,-6) scale(1,1)"><g><path fill="none" stroke="none"/><text fill="#000000" stroke="none" font-family="Arial" font-size="13px" font-style="normal" font-weight="normal" text-decoration="none" x="317" y="603.5">+generarTransito(): void</text></g></g><g transform="translate(-302,-6) scale(1,1)"><g><path fill="none" stroke="none"/><text fill="#000000" stroke="none" font-family="Arial" font-size="13px" font-style="normal" font-weight="normal" text-decoration="none" x="317" y="618.5">+interseccionPrioritarias(): String</text></g></g><g transform="translate(-302,-6) scale(1,1)"><g><path fill="none" stroke="none"/><text fill="#000000" stroke="none" font-family="Arial" font-size="13px" font-style="normal" font-weight="normal" text-decoration="none" x="317" y="633.5">+getInterseccionCondicion(LinkedHashMap&lt;String, Boolean&gt;vs) :  LinkedHashMap&lt;String, Boolean&gt;()</text></g></g><g transform="translate(-302,-6) scale(1,1)"><g><path fill="none" stroke="none"/><text fill="#000000" stroke="none" font-family="Arial" font-size="13px" font-style="normal" font-weight="normal" text-decoration="none" x="317" y="648.5">+getInterseccionInhibicion(LinkedHashMap&lt;String, Boolean&gt;vs, LinkedHashMap&lt;String, Boolean&gt;vi) :  LinkedHashMap&lt;String, Boolean&gt;()</text></g></g><g transform="translate(-302,-6) scale(1,1)"><g><path fill="none" stroke="none"/><text fill="#000000" stroke="none" font-family="Arial" font-size="13px" font-style="normal" font-weight="normal" text-decoration="none" x="317" y="663.5">+getSensibilizadas: LinkedHashMap&lt;String, Boolen&gt;()</text></g></g><g transform="translate(-302,-6) scale(1,1)"><g><path fill="none" stroke="none"/><text fill="#000000" stroke="none" font-family="Arial" font-size="13px" font-style="normal" font-weight="normal" text-decoration="none" x="317" y="678.5">+getInhibidas():LinkedHashMap&lt;String, Boolean&gt;()</text></g></g><g transform="translate(-302,-6) scale(1,1)"><g><path fill="none" stroke="none"/><text fill="#000000" stroke="none" font-family="Arial" font-size="13px" font-style="normal" font-weight="normal" text-decoration="none" x="317" y="693.5">+dispararRed(String): Boolean()</text></g></g><g transform="translate(-302,-6) scale(1,1)"><g><path fill="none" stroke="none"/><text fill="#000000" stroke="none" font-family="Arial" font-size="13px" font-style="normal" font-weight="normal" text-decoration="none" x="317" y="708.5">+dispararRed(Integer[]): Boolean()</text></g></g><g transform="translate(-302,-6) scale(1,1)"><rect fill="#C0C0C0" stroke="none" x="1367" y="23" width="160" height="96" opacity="0.2"/></g><g transform="translate(-302,-6) scale(1,1)"><rect fill="#ffffff" stroke="none" x="1360" y="16" width="160" height="96"/></g><g transform="translate(-302,-6) scale(1,1)"><path fill="none" stroke="#000000" d="M 1360 16 L 1520 16 L 1520 112 L 1360 112 L 1360 16 Z Z" stroke-miterlimit="10"/></g><g transform="translate(-302,-6) scale(1,1)"><path fill="none" stroke="#000000" d="M 1360 41 L 1520 41" stroke-miterlimit="10"/></g><g transform="translate(-302,-6) scale(1,1)"><path fill="none" stroke="#000000" d="M 1360 79 L 1520 79" stroke-miterlimit="10"/></g><g transform="translate(-302,-6) scale(1,1)"><g><path fill="none" stroke="none"/><text fill="#000000" stroke="none" font-family="Arial" font-size="13px" font-style="normal" font-weight="bold" text-decoration="none" x="1426.635009765625" y="35.5">Tren</text></g></g><g transform="translate(-302,-6) scale(1,1)"><g><path fill="none" stroke="none"/><text fill="#000000" stroke="none" font-family="Arial" font-size="13px" font-style="normal" font-weight="normal" text-decoration="none" x="1365" y="58.5">+monitorTren: Monitor</text></g></g><g transform="translate(-302,-6) scale(1,1)"><g><path fill="none" stroke="none"/><text fill="#000000" stroke="none" font-family="Arial" font-size="13px" font-style="normal" font-weight="normal" text-decoration="none" x="1365" y="73.5">+Tren(Monitor, String)</text></g></g><g transform="translate(-302,-6) scale(1,1)"><g><path fill="none" stroke="none"/><text fill="#000000" stroke="none" font-family="Arial" font-size="13px" font-style="normal" font-weight="normal" text-decoration="none" x="1365" y="96.5">+run(): void</text></g></g><g transform="translate(-302,-6) scale(1,1)"><rect fill="#C0C0C0" stroke="none" x="959" y="759" width="256" height="104" opacity="0.2"/></g><g transform="translate(-302,-6) scale(1,1)"><rect fill="#ffffff" stroke="none" x="952" y="752" width="256" height="104"/></g><g transform="translate(-302,-6) scale(1,1)"><path fill="none" stroke="#000000" d="M 952 752 L 1208 752 L 1208 856 L 952 856 L 952 752 Z Z" stroke-miterlimit="10"/></g><g transform="translate(-302,-6) scale(1,1)"><path fill="none" stroke="#000000" d="M 952 777 L 1208 777" stroke-miterlimit="10"/></g><g transform="translate(-302,-6) scale(1,1)"><path fill="none" stroke="#000000" d="M 952 815 L 1208 815" stroke-miterlimit="10"/></g><g transform="translate(-302,-6) scale(1,1)"><g><path fill="none" stroke="none"/><text fill="#000000" stroke="none" font-family="Arial" font-size="13px" font-style="normal" font-weight="bold" text-decoration="none" x="1035.921875" y="771.5">SubirPasajeros</text></g></g><g transform="translate(-302,-6) scale(1,1)"><g><path fill="none" stroke="none"/><text fill="#000000" stroke="none" font-family="Arial" font-size="13px" font-style="normal" font-weight="normal" text-decoration="none" x="957" y="794.5">+monitorTren: Monitor</text></g></g><g transform="translate(-302,-6) scale(1,1)"><g><path fill="none" stroke="none"/><text fill="#000000" stroke="none" font-family="Arial" font-size="13px" font-style="normal" font-weight="normal" text-decoration="none" x="957" y="809.5">+SubirPasajeros(Monitor, String, String)</text></g></g><g transform="translate(-302,-6) scale(1,1)"><g><path fill="none" stroke="none"/><text fill="#000000" stroke="none" font-family="Arial" font-size="13px" font-style="normal" font-weight="normal" text-decoration="none" x="957" y="832.5">+run(): void</text></g></g><g transform="translate(-302,-6) scale(1,1)"><rect fill="#C0C0C0" stroke="none" x="1327" y="759" width="239.12158203125" height="104" opacity="0.2"/></g><g transform="translate(-302,-6) scale(1,1)"><rect fill="#ffffff" stroke="none" x="1320" y="752" width="239.12158203125" height="104"/></g><g transform="translate(-302,-6) scale(1,1)"><path fill="none" stroke="#000000" d="M 1320 752 L 1559.12158203125 752 L 1559.12158203125 856 L 1320 856 L 1320 752 Z Z" stroke-miterlimit="10"/></g><g transform="translate(-302,-6) scale(1,1)"><path fill="none" stroke="#000000" d="M 1320 777 L 1559.12158203125 777" stroke-miterlimit="10"/></g><g transform="translate(-302,-6) scale(1,1)"><path fill="none" stroke="#000000" d="M 1320 815 L 1559.12158203125 815" stroke-miterlimit="10"/></g><g transform="translate(-302,-6) scale(1,1)"><g><path fill="none" stroke="none"/><text fill="#000000" stroke="none" font-family="Arial" font-size="13px" font-style="normal" font-weight="bold" text-decoration="none" x="1395.482666015625" y="771.5">BajarPasajeros</text></g></g><g transform="translate(-302,-6) scale(1,1)"><g><path fill="none" stroke="none"/><text fill="#000000" stroke="none" font-family="Arial" font-size="13px" font-style="normal" font-weight="normal" text-decoration="none" x="1325" y="794.5">+monitorTren: Monitor</text></g></g><g transform="translate(-302,-6) scale(1,1)"><g><path fill="none" stroke="none"/><text fill="#000000" stroke="none" font-family="Arial" font-size="13px" font-style="normal" font-weight="normal" text-decoration="none" x="1325" y="809.5">+BajarPasajeros(Monitor, String, String)</text></g></g><g transform="translate(-302,-6) scale(1,1)"><g><path fill="none" stroke="none"/><text fill="#000000" stroke="none" font-family="Arial" font-size="13px" font-style="normal" font-weight="normal" text-decoration="none" x="1325" y="832.5">+run(): void</text></g></g><g transform="translate(-302,-6) scale(1,1)"><rect fill="#C0C0C0" stroke="none" x="671" y="23" width="264" height="96" opacity="0.2"/></g><g transform="translate(-302,-6) scale(1,1)"><rect fill="#ffffff" stroke="none" x="664" y="16" width="264" height="96"/></g><g transform="translate(-302,-6) scale(1,1)"><path fill="none" stroke="#000000" d="M 664 16 L 928 16 L 928 112 L 664 112 L 664 16 Z Z" stroke-miterlimit="10"/></g><g transform="translate(-302,-6) scale(1,1)"><path fill="none" stroke="#000000" d="M 664 41 L 928 41" stroke-miterlimit="10"/></g><g transform="translate(-302,-6) scale(1,1)"><path fill="none" stroke="#000000" d="M 664 79 L 928 79" stroke-miterlimit="10"/></g><g transform="translate(-302,-6) scale(1,1)"><g><path fill="none" stroke="none"/><text fill="#000000" stroke="none" font-family="Arial" font-size="13px" font-style="normal" font-weight="bold" text-decoration="none" x="766.7373046875" y="35.5">PasoNivel</text></g></g><g transform="translate(-302,-6) scale(1,1)"><g><path fill="none" stroke="none"/><text fill="#000000" stroke="none" font-family="Arial" font-size="13px" font-style="normal" font-weight="normal" text-decoration="none" x="669" y="58.5">+monitorTren: Monitor</text></g></g><g transform="translate(-302,-6) scale(1,1)"><g><path fill="none" stroke="none"/><text fill="#000000" stroke="none" font-family="Arial" font-size="13px" font-style="normal" font-weight="normal" text-decoration="none" x="669" y="73.5">+PasoNivel(Monitor, String, String)</text></g></g><g transform="translate(-302,-6) scale(1,1)"><g><path fill="none" stroke="none"/><text fill="#000000" stroke="none" font-family="Arial" font-size="13px" font-style="normal" font-weight="normal" text-decoration="none" x="669" y="96.5">+run(): void</text></g></g><g transform="translate(-302,-6) scale(1,1)"><path fill="none" stroke="#000000" d="M 1359 109 L 1137 232" stroke-miterlimit="10"/></g><g transform="translate(-302,-6) scale(1,1)"><path fill="#FFFFFF" stroke="none" d="M 1143.8493402886675 223.39264630620784 L 1137 232 L 1147.9295331297224 230.75689679981943 L 1156.2437139180508 221.33794228864744"/></g><g transform="translate(-302,-6) scale(1,1)"><path fill="none" stroke="#000000" d="M 1143.8493402886675 223.39264630620784 L 1137 232 L 1147.9295331297224 230.75689679981943 L 1156.2437139180508 221.33794228864744 L 1143.8493402886675 223.39264630620784" stroke-miterlimit="10"/></g><g transform="translate(-302,-6) scale(1,1)"><path fill="none" stroke="#000000" d="M 1025 751 L 987 714" stroke-miterlimit="10"/></g><g transform="translate(-302,-6) scale(1,1)"><path fill="#FFFFFF" stroke="none" d="M 997.2178935441972 718.073653338154 L 987 714 L 991.3446339149322 724.105649714156 L 1002.7623661383053 729.3475670294026"/></g><g transform="translate(-302,-6) scale(1,1)"><path fill="none" stroke="#000000" d="M 997.2178935441972 718.073653338154 L 987 714 L 991.3446339149322 724.105649714156 L 1002.7623661383053 729.3475670294026 L 997.2178935441972 718.073653338154" stroke-miterlimit="10"/></g><g transform="translate(-302,-6) scale(1,1)"><path fill="none" stroke="#000000" d="M 1329 751 L 1137 659" stroke-miterlimit="10"/></g><g transform="translate(-302,-6) scale(1,1)"><path fill="#FFFFFF" stroke="none" d="M 1147.9838806535774 659.5952863075574 L 1137 659 L 1144.345845509067 667.1877074787097 L 1156.839952631942 668.5066439694722"/></g><g transform="translate(-302,-6) scale(1,1)"><path fill="none" stroke="#000000" d="M 1147.9838806535774 659.5952863075574 L 1137 659 L 1144.345845509067 667.1877074787097 L 1156.839952631942 668.5066439694722 L 1147.9838806535774 659.5952863075574" stroke-miterlimit="10"/></g><g transform="translate(-302,-6) scale(1,1)"><path fill="none" stroke="#000000" d="M 787 113 L 770 207" stroke-miterlimit="10"/></g><g transform="translate(-302,-6) scale(1,1)"><path fill="#FFFFFF" stroke="none" d="M 767.6662705103093 196.25040899992246 L 770 207 L 775.9509127435215 197.74869536124802 L 773.9152109409748 185.35118656166875"/></g><g transform="translate(-302,-6) scale(1,1)"><path fill="none" stroke="#000000" d="M 767.6662705103093 196.25040899992246 L 770 207 L 775.9509127435215 197.74869536124802 L 773.9152109409748 185.35118656166875 L 767.6662705103093 196.25040899992246" stroke-miterlimit="10"/></g><g transform="translate(-302,-6) scale(1,1)"><path fill="none" stroke="#000000" d="M 1118 751 L 1371 401" stroke-miterlimit="10"/></g><g transform="translate(-302,-6) scale(1,1)"><path fill="none" stroke="#000000" d="M 925 113 L 1263 241" stroke-miterlimit="10"/></g><g transform="translate(-302,-6) scale(1,1)"><path fill="none" stroke="#000000" d="M 1439 751 L 1438 401" stroke-miterlimit="10"/></g><g transform="translate(-302,-6) scale(1,1)"><path fill="none" stroke="#000000" d="M 1440 113 L 1439 215" stroke-miterlimit="10"/></g><g transform="translate(-302,-6) scale(1,1)"><path fill="none" stroke="#000000" d="M 1137 372 L 1263 345" stroke-miterlimit="10"/></g><g transform="translate(-302,-6) scale(1,1)"><rect fill="#C0C0C0" stroke="none" x="1055" y="23" width="213.115234375" height="96" opacity="0.2"/></g><g transform="translate(-302,-6) scale(1,1)"><rect fill="#ffffff" stroke="none" x="1048" y="16" width="213.115234375" height="96"/></g><g transform="translate(-302,-6) scale(1,1)"><path fill="none" stroke="#000000" d="M 1048 16 L 1261.115234375 16 L 1261.115234375 112 L 1048 112 L 1048 16 Z Z" stroke-miterlimit="10"/></g><g transform="translate(-302,-6) scale(1,1)"><path fill="none" stroke="#000000" d="M 1048 41 L 1261.115234375 41" stroke-miterlimit="10"/></g><g transform="translate(-302,-6) scale(1,1)"><path fill="none" stroke="#000000" d="M 1048 79 L 1261.115234375 79" stroke-miterlimit="10"/></g><g transform="translate(-302,-6) scale(1,1)"><g><path fill="none" stroke="none"/><text fill="#000000" stroke="none" font-family="Arial" font-size="13px" font-style="normal" font-weight="bold" text-decoration="none" x="1123.482666015625" y="35.5">Generador</text></g></g><g transform="translate(-302,-6) scale(1,1)"><g><path fill="none" stroke="none"/><text fill="#000000" stroke="none" font-family="Arial" font-size="13px" font-style="normal" font-weight="normal" text-decoration="none" x="1053" y="58.5">+monitorTren: Monitor</text></g></g><g transform="translate(-302,-6) scale(1,1)"><g><path fill="none" stroke="none"/><text fill="#000000" stroke="none" font-family="Arial" font-size="13px" font-style="normal" font-weight="normal" text-decoration="none" x="1053" y="73.5">+Generador(Monitor, String, String)</text></g></g><g transform="translate(-302,-6) scale(1,1)"><g><path fill="none" stroke="none"/><text fill="#000000" stroke="none" font-family="Arial" font-size="13px" font-style="normal" font-weight="normal" text-decoration="none" x="1053" y="96.5">+run(): void</text></g></g><g transform="translate(-302,-6) scale(1,1)"><path fill="none" stroke="#000000" d="M 1211 113 L 1330 215" stroke-miterlimit="10"/></g></g></svg>