<svg version="1.1" xmlns="http://www.w3.org/2000/svg" xmlns:xlink="http://www.w3.org/1999/xlink" width="784.009765625" height="641"><defs/><g><g transform="translate(-214,-6) scale(1,1)"><rect fill="#C0C0C0" stroke="none" x="535" y="247" width="136" height="120" opacity="0.2"/></g><g transform="translate(-214,-6) scale(1,1)"><rect fill="#ffffff" stroke="none" x="528" y="240" width="136" height="120"/></g><g transform="translate(-214,-6) scale(1,1)"><path fill="none" stroke="#000000" d="M 528 240 L 664 240 L 664 360 L 528 360 L 528 240 Z Z" stroke-miterlimit="10"/></g><g transform="translate(-214,-6) scale(1,1)"><path fill="none" stroke="#000000" d="M 528 265 L 664 265" stroke-miterlimit="10"/></g><g transform="translate(-214,-6) scale(1,1)"><path fill="none" stroke="#000000" d="M 528 333 L 664 333" stroke-miterlimit="10"/></g><g transform="translate(-214,-6) scale(1,1)"><g><path fill="none" stroke="none"/><text fill="#000000" stroke="none" font-family="Arial" font-size="13px" font-style="normal" font-weight="bold" text-decoration="none" x="581.911376953125" y="259.5">Main</text></g></g><g transform="translate(-214,-6) scale(1,1)"><g><path fill="none" stroke="none"/><text fill="#000000" stroke="none" font-family="Arial" font-size="13px" font-style="normal" font-weight="normal" text-decoration="none" x="533" y="282.5">+marcadoInicial</text></g></g><g transform="translate(-214,-6) scale(1,1)"><g><path fill="none" stroke="none"/><text fill="#000000" stroke="none" font-family="Arial" font-size="13px" font-style="normal" font-weight="normal" text-decoration="none" x="533" y="297.5">+matrizMas</text></g></g><g transform="translate(-214,-6) scale(1,1)"><g><path fill="none" stroke="none"/><text fill="#000000" stroke="none" font-family="Arial" font-size="13px" font-style="normal" font-weight="normal" text-decoration="none" x="533" y="312.5">+matrizMenos</text></g></g><g transform="translate(-214,-6) scale(1,1)"><g><path fill="none" stroke="none"/><text fill="#000000" stroke="none" font-family="Arial" font-size="13px" font-style="normal" font-weight="normal" text-decoration="none" x="533" y="327.5">+absolutePath</text></g></g><g transform="translate(-214,-6) scale(1,1)"><rect fill="#C0C0C0" stroke="none" x="231" y="239" width="161.8134765625" height="192" opacity="0.2"/></g><g transform="translate(-214,-6) scale(1,1)"><rect fill="#ffffff" stroke="none" x="224" y="232" width="161.8134765625" height="192"/></g><g transform="translate(-214,-6) scale(1,1)"><path fill="none" stroke="#000000" d="M 224 232 L 385.8134765625 232 L 385.8134765625 424 L 224 424 L 224 232 Z Z" stroke-miterlimit="10"/></g><g transform="translate(-214,-6) scale(1,1)"><path fill="none" stroke="#000000" d="M 224 257 L 385.8134765625 257" stroke-miterlimit="10"/></g><g transform="translate(-214,-6) scale(1,1)"><path fill="none" stroke="#000000" d="M 224 355 L 385.8134765625 355" stroke-miterlimit="10"/></g><g transform="translate(-214,-6) scale(1,1)"><g><path fill="none" stroke="none"/><text fill="#000000" stroke="none" font-family="Arial" font-size="13px" font-style="normal" font-weight="bold" text-decoration="none" x="283.232666015625" y="251.5">Monitor</text></g></g><g transform="translate(-214,-6) scale(1,1)"><g><path fill="none" stroke="none"/><text fill="#000000" stroke="none" font-family="Arial" font-size="13px" font-style="normal" font-weight="normal" text-decoration="none" x="229" y="274.5">+matrizMas</text></g></g><g transform="translate(-214,-6) scale(1,1)"><g><path fill="none" stroke="none"/><text fill="#000000" stroke="none" font-family="Arial" font-size="13px" font-style="normal" font-weight="normal" text-decoration="none" x="229" y="289.5">+matrizMenos</text></g></g><g transform="translate(-214,-6) scale(1,1)"><g><path fill="none" stroke="none"/><text fill="#000000" stroke="none" font-family="Arial" font-size="13px" font-style="normal" font-weight="normal" text-decoration="none" x="229" y="304.5">+marcado</text></g></g><g transform="translate(-214,-6) scale(1,1)"><g><path fill="none" stroke="none"/><text fill="#000000" stroke="none" font-family="Arial" font-size="13px" font-style="normal" font-weight="normal" text-decoration="none" x="229" y="319.5">+marcadoInicial</text></g></g><g transform="translate(-214,-6) scale(1,1)"><g><path fill="none" stroke="none"/><text fill="#000000" stroke="none" font-family="Arial" font-size="13px" font-style="normal" font-weight="normal" text-decoration="none" x="229" y="334.5">+colaCondicion</text></g></g><g transform="translate(-214,-6) scale(1,1)"><g><path fill="none" stroke="none"/><text fill="#000000" stroke="none" font-family="Arial" font-size="13px" font-style="normal" font-weight="normal" text-decoration="none" x="229" y="349.5">+politicas</text></g></g><g transform="translate(-214,-6) scale(1,1)"><g><path fill="none" stroke="none"/><text fill="#000000" stroke="none" font-family="Arial" font-size="13px" font-style="normal" font-weight="normal" text-decoration="none" x="229" y="372.5">+continuarRecorridoTren()</text></g></g><g transform="translate(-214,-6) scale(1,1)"><g><path fill="none" stroke="none"/><text fill="#000000" stroke="none" font-family="Arial" font-size="13px" font-style="normal" font-weight="normal" text-decoration="none" x="229" y="387.5">+abordarTren()</text></g></g><g transform="translate(-214,-6) scale(1,1)"><g><path fill="none" stroke="none"/><text fill="#000000" stroke="none" font-family="Arial" font-size="13px" font-style="normal" font-weight="normal" text-decoration="none" x="229" y="402.5">+descenderTren()</text></g></g><g transform="translate(-214,-6) scale(1,1)"><g><path fill="none" stroke="none"/><text fill="#000000" stroke="none" font-family="Arial" font-size="13px" font-style="normal" font-weight="normal" text-decoration="none" x="229" y="417.5">+cruzarPasoNivel()</text></g></g><g transform="translate(-214,-6) scale(1,1)"><rect fill="#C0C0C0" stroke="none" x="847" y="23" width="136" height="128" opacity="0.2"/></g><g transform="translate(-214,-6) scale(1,1)"><rect fill="#ffffff" stroke="none" x="840" y="16" width="136" height="128"/></g><g transform="translate(-214,-6) scale(1,1)"><path fill="none" stroke="#000000" d="M 840 16 L 976 16 L 976 144 L 840 144 L 840 16 Z Z" stroke-miterlimit="10"/></g><g transform="translate(-214,-6) scale(1,1)"><path fill="none" stroke="#000000" d="M 840 41 L 976 41" stroke-miterlimit="10"/></g><g transform="translate(-214,-6) scale(1,1)"><path fill="none" stroke="#000000" d="M 840 79 L 976 79" stroke-miterlimit="10"/></g><g transform="translate(-214,-6) scale(1,1)"><g><path fill="none" stroke="none"/><text fill="#000000" stroke="none" font-family="Arial" font-size="13px" font-style="normal" font-weight="bold" text-decoration="none" x="894.635009765625" y="35.5">Tren</text></g></g><g transform="translate(-214,-6) scale(1,1)"><g><path fill="none" stroke="none"/><text fill="#000000" stroke="none" font-family="Arial" font-size="13px" font-style="normal" font-weight="normal" text-decoration="none" x="845" y="58.5">+monitorTren</text></g></g><g transform="translate(-214,-6) scale(1,1)"><g><path fill="none" stroke="none"/><text fill="#000000" stroke="none" font-family="Arial" font-size="13px" font-style="normal" font-weight="normal" text-decoration="none" x="845" y="73.5">+sleepTimeStamp</text></g></g><g transform="translate(-214,-6) scale(1,1)"><g><path fill="none" stroke="none"/><text fill="#000000" stroke="none" font-family="Arial" font-size="13px" font-style="normal" font-weight="normal" text-decoration="none" x="845" y="96.5">+run()</text></g></g><g transform="translate(-214,-6) scale(1,1)"><g><path fill="none" stroke="none"/><text fill="#000000" stroke="none" font-family="Arial" font-size="13px" font-style="normal" font-weight="normal" text-decoration="none" x="845" y="111.5">+getTimeStamp()</text></g></g><g transform="translate(-214,-6) scale(1,1)"><g><path fill="none" stroke="none"/><text fill="#000000" stroke="none" font-family="Arial" font-size="13px" font-style="normal" font-weight="normal" text-decoration="none" x="845" y="126.5">+setTimeStamp()</text></g></g><g transform="translate(-214,-6) scale(1,1)"><rect fill="#C0C0C0" stroke="none" x="231" y="511" width="164.009765625" height="120" opacity="0.2"/></g><g transform="translate(-214,-6) scale(1,1)"><rect fill="#ffffff" stroke="none" x="224" y="504" width="164.009765625" height="120"/></g><g transform="translate(-214,-6) scale(1,1)"><path fill="none" stroke="#000000" d="M 224 504 L 388.009765625 504 L 388.009765625 624 L 224 624 L 224 504 Z Z" stroke-miterlimit="10"/></g><g transform="translate(-214,-6) scale(1,1)"><path fill="none" stroke="#000000" d="M 224 529 L 388.009765625 529" stroke-miterlimit="10"/></g><g transform="translate(-214,-6) scale(1,1)"><path fill="none" stroke="#000000" d="M 224 567 L 388.009765625 567" stroke-miterlimit="10"/></g><g transform="translate(-214,-6) scale(1,1)"><g><path fill="none" stroke="none"/><text fill="#000000" stroke="none" font-family="Arial" font-size="13px" font-style="normal" font-weight="bold" text-decoration="none" x="261.9267578125" y="523.5">SubirPasajeros</text></g></g><g transform="translate(-214,-6) scale(1,1)"><g><path fill="none" stroke="none"/><text fill="#000000" stroke="none" font-family="Arial" font-size="13px" font-style="normal" font-weight="normal" text-decoration="none" x="229" y="546.5">+monitorTren</text></g></g><g transform="translate(-214,-6) scale(1,1)"><g><path fill="none" stroke="none"/><text fill="#000000" stroke="none" font-family="Arial" font-size="13px" font-style="normal" font-weight="normal" text-decoration="none" x="229" y="561.5">+pasajeros</text></g></g><g transform="translate(-214,-6) scale(1,1)"><g><path fill="none" stroke="none"/><text fill="#000000" stroke="none" font-family="Arial" font-size="13px" font-style="normal" font-weight="normal" text-decoration="none" x="229" y="584.5">+run()</text></g></g><g transform="translate(-214,-6) scale(1,1)"><rect fill="#C0C0C0" stroke="none" x="831" y="511" width="164.009765625" height="120" opacity="0.2"/></g><g transform="translate(-214,-6) scale(1,1)"><rect fill="#ffffff" stroke="none" x="824" y="504" width="164.009765625" height="120"/></g><g transform="translate(-214,-6) scale(1,1)"><path fill="none" stroke="#000000" d="M 824 504 L 988.009765625 504 L 988.009765625 624 L 824 624 L 824 504 Z Z" stroke-miterlimit="10"/></g><g transform="translate(-214,-6) scale(1,1)"><path fill="none" stroke="#000000" d="M 824 529 L 988.009765625 529" stroke-miterlimit="10"/></g><g transform="translate(-214,-6) scale(1,1)"><path fill="none" stroke="#000000" d="M 824 567 L 988.009765625 567" stroke-miterlimit="10"/></g><g transform="translate(-214,-6) scale(1,1)"><g><path fill="none" stroke="none"/><text fill="#000000" stroke="none" font-family="Arial" font-size="13px" font-style="normal" font-weight="bold" text-decoration="none" x="861.9267578125" y="523.5">BajarPasajeros</text></g></g><g transform="translate(-214,-6) scale(1,1)"><g><path fill="none" stroke="none"/><text fill="#000000" stroke="none" font-family="Arial" font-size="13px" font-style="normal" font-weight="normal" text-decoration="none" x="829" y="546.5">+monitorTren</text></g></g><g transform="translate(-214,-6) scale(1,1)"><g><path fill="none" stroke="none"/><text fill="#000000" stroke="none" font-family="Arial" font-size="13px" font-style="normal" font-weight="normal" text-decoration="none" x="829" y="561.5">+pasajeros</text></g></g><g transform="translate(-214,-6) scale(1,1)"><g><path fill="none" stroke="none"/><text fill="#000000" stroke="none" font-family="Arial" font-size="13px" font-style="normal" font-weight="normal" text-decoration="none" x="829" y="584.5">+getPasajeros()</text></g></g><g transform="translate(-214,-6) scale(1,1)"><g><path fill="none" stroke="none"/><text fill="#000000" stroke="none" font-family="Arial" font-size="13px" font-style="normal" font-weight="normal" text-decoration="none" x="829" y="599.5">+setPasajeros()</text></g></g><g transform="translate(-214,-6) scale(1,1)"><g><path fill="none" stroke="none"/><text fill="#000000" stroke="none" font-family="Arial" font-size="13px" font-style="normal" font-weight="normal" text-decoration="none" x="829" y="614.5">+getPasajerosEsperando()</text></g></g><g transform="translate(-214,-6) scale(1,1)"><rect fill="#C0C0C0" stroke="none" x="231" y="23" width="162.56884765625" height="130" opacity="0.2"/></g><g transform="translate(-214,-6) scale(1,1)"><rect fill="#ffffff" stroke="none" x="224" y="16" width="162.56884765625" height="130"/></g><g transform="translate(-214,-6) scale(1,1)"><path fill="none" stroke="#000000" d="M 224 16 L 386.56884765625 16 L 386.56884765625 146 L 224 146 L 224 16 Z Z" stroke-miterlimit="10"/></g><g transform="translate(-214,-6) scale(1,1)"><path fill="none" stroke="#000000" d="M 224 41 L 386.56884765625 41" stroke-miterlimit="10"/></g><g transform="translate(-214,-6) scale(1,1)"><path fill="none" stroke="#000000" d="M 224 79 L 386.56884765625 79" stroke-miterlimit="10"/></g><g transform="translate(-214,-6) scale(1,1)"><g><path fill="none" stroke="none"/><text fill="#000000" stroke="none" font-family="Arial" font-size="13px" font-style="normal" font-weight="bold" text-decoration="none" x="276.021728515625" y="35.5">PasoNivel</text></g></g><g transform="translate(-214,-6) scale(1,1)"><g><path fill="none" stroke="none"/><text fill="#000000" stroke="none" font-family="Arial" font-size="13px" font-style="normal" font-weight="normal" text-decoration="none" x="229" y="58.5">+sleepTimeStamp</text></g></g><g transform="translate(-214,-6) scale(1,1)"><g><path fill="none" stroke="none"/><text fill="#000000" stroke="none" font-family="Arial" font-size="13px" font-style="normal" font-weight="normal" text-decoration="none" x="229" y="73.5">+monitorTren</text></g></g><g transform="translate(-214,-6) scale(1,1)"><g><path fill="none" stroke="none"/><text fill="#000000" stroke="none" font-family="Arial" font-size="13px" font-style="normal" font-weight="normal" text-decoration="none" x="229" y="96.5">+run()</text></g></g><g transform="translate(-214,-6) scale(1,1)"><rect fill="#C0C0C0" stroke="none" x="847" y="247" width="136" height="120" opacity="0.2"/></g><g transform="translate(-214,-6) scale(1,1)"><rect fill="#ffffff" stroke="none" x="840" y="240" width="136" height="120"/></g><g transform="translate(-214,-6) scale(1,1)"><path fill="none" stroke="#000000" d="M 840 240 L 976 240 L 976 360 L 840 360 L 840 240 Z Z" stroke-miterlimit="10"/></g><g transform="translate(-214,-6) scale(1,1)"><path fill="none" stroke="#000000" d="M 840 265 L 976 265" stroke-miterlimit="10"/></g><g transform="translate(-214,-6) scale(1,1)"><path fill="none" stroke="#000000" d="M 840 275 L 976 275" stroke-miterlimit="10"/></g><g transform="translate(-214,-6) scale(1,1)"><g><path fill="none" stroke="none"/><text fill="#000000" stroke="none" font-family="Arial" font-size="13px" font-style="normal" font-weight="bold" text-decoration="none" x="887.405029296875" y="259.5">Thread</text></g></g><g transform="translate(-214,-6) scale(1,1)"><g><path fill="none" stroke="none"/><text fill="#000000" stroke="none" font-family="Arial" font-size="13px" font-style="normal" font-weight="normal" text-decoration="none" x="845" y="292.5">+start()</text></g></g><g transform="translate(-214,-6) scale(1,1)"><g><path fill="none" stroke="none"/><text fill="#000000" stroke="none" font-family="Arial" font-size="13px" font-style="normal" font-weight="normal" text-decoration="none" x="845" y="307.5">+wait()</text></g></g><g transform="translate(-214,-6) scale(1,1)"><g><path fill="none" stroke="none"/><text fill="#000000" stroke="none" font-family="Arial" font-size="13px" font-style="normal" font-weight="normal" text-decoration="none" x="845" y="322.5">+notify()</text></g></g><g transform="translate(-214,-6) scale(1,1)"><g><path fill="none" stroke="none"/><text fill="#000000" stroke="none" font-family="Arial" font-size="13px" font-style="normal" font-weight="normal" text-decoration="none" x="845" y="337.5">+setName()</text></g></g><g transform="translate(-214,-6) scale(1,1)"><g><path fill="none" stroke="none"/><text fill="#000000" stroke="none" font-family="Arial" font-size="13px" font-style="normal" font-weight="normal" text-decoration="none" x="845" y="352.5">+getName()</text></g></g><g transform="translate(-214,-6) scale(1,1)"><path fill="none" stroke="#000000" d="M 388 111 L 839 275" stroke-miterlimit="10"/></g><g transform="translate(-214,-6) scale(1,1)"><path fill="#FFFFFF" stroke="none" d="M 817.0212230233896 275.96610693632584 L 839 275 L 822.7755169916246 260.1417985236793"/></g><g transform="translate(-214,-6) scale(1,1)"><path fill="none" stroke="#000000" d="M 817.0212230233896 275.96610693632584 L 839 275 L 822.7755169916246 260.1417985236793 L 817.0212230233896 275.96610693632584" stroke-miterlimit="10"/></g><g transform="translate(-214,-6) scale(1,1)"><path fill="none" stroke="#000000" d="M 906 503 L 908 361" stroke-miterlimit="10"/></g><g transform="translate(-214,-6) scale(1,1)"><path fill="#FFFFFF" stroke="none" d="M 916.1319564391542 381.4419002167533 L 908 361 L 899.2955552788345 381.2047678060446"/></g><g transform="translate(-214,-6) scale(1,1)"><path fill="none" stroke="#000000" d="M 916.1319564391542 381.4419002167533 L 908 361 L 899.2955552788345 381.2047678060446 L 916.1319564391542 381.4419002167533" stroke-miterlimit="10"/></g><g transform="translate(-214,-6) scale(1,1)"><path fill="none" stroke="#000000" d="M 389 528 L 839 330" stroke-miterlimit="10"/></g><g transform="translate(-214,-6) scale(1,1)"><path fill="#FFFFFF" stroke="none" d="M 823.7865725619556 345.89187294145523 L 839 330 L 817.0052311708113 330.4797334161273"/></g><g transform="translate(-214,-6) scale(1,1)"><path fill="none" stroke="#000000" d="M 823.7865725619556 345.89187294145523 L 839 330 L 817.0052311708113 330.4797334161273 L 823.7865725619556 345.89187294145523" stroke-miterlimit="10"/></g><g transform="translate(-214,-6) scale(1,1)"><path fill="none" stroke="#000000" d="M 908 239 L 908 145" stroke-miterlimit="10"/></g><g transform="translate(-214,-6) scale(1,1)"><path fill="#FFFFFF" stroke="none" d="M 916.419035512032 165.3253497152483 L 908 145 L 899.580964487968 165.3253497152483"/></g><g transform="translate(-214,-6) scale(1,1)"><path fill="none" stroke="#000000" d="M 916.419035512032 165.3253497152483 L 908 145 L 899.580964487968 165.3253497152483 L 916.419035512032 165.3253497152483" stroke-miterlimit="10"/></g><g transform="translate(-214,-6) scale(1,1)"><path fill="none" stroke="#000000" d="M 839 108 L 387 294" stroke-miterlimit="10"/></g><g transform="translate(-214,-6) scale(1,1)"><path fill="#FFFFFF" stroke="none" d="M 394.7961571545607 286.23984963925363 L 387 294 L 397.9999705342969 294.0254606480749 L 407.3447820061193 285.62803218332255"/></g><g transform="translate(-214,-6) scale(1,1)"><path fill="none" stroke="#000000" d="M 394.7961571545607 286.23984963925363 L 387 294 L 397.9999705342969 294.0254606480749 L 407.3447820061193 285.62803218332255 L 394.7961571545607 286.23984963925363" stroke-miterlimit="10"/></g><g transform="translate(-214,-6) scale(1,1)"><path fill="none" stroke="#000000" d="M 305 503 L 305 425" stroke-miterlimit="10"/></g><g transform="translate(-214,-6) scale(1,1)"><path fill="#FFFFFF" stroke="none" d="M 309.209517756016 435.16267485762415 L 305 425 L 300.790482243984 435.16267485762415 L 305 447"/></g><g transform="translate(-214,-6) scale(1,1)"><path fill="none" stroke="#000000" d="M 309.209517756016 435.16267485762415 L 305 425 L 300.790482243984 435.16267485762415 L 305 447 L 309.209517756016 435.16267485762415" stroke-miterlimit="10"/></g><g transform="translate(-214,-6) scale(1,1)"><path fill="none" stroke="#000000" d="M 823 531 L 387 360" stroke-miterlimit="10"/></g><g transform="translate(-214,-6) scale(1,1)"><path fill="#FFFFFF" stroke="none" d="M 397.9980284779553 359.7917463131564 L 387 360 L 394.92403811061916 367.6295229222708 L 407.48109728888636 368.03272393669624"/></g><g transform="translate(-214,-6) scale(1,1)"><path fill="none" stroke="#000000" d="M 397.9980284779553 359.7917463131564 L 387 360 L 394.92403811061916 367.6295229222708 L 407.48109728888636 368.03272393669624 L 397.9980284779553 359.7917463131564" stroke-miterlimit="10"/></g><g transform="translate(-214,-6) scale(1,1)"><path fill="none" stroke="#000000" d="M 305 147 L 304 231" stroke-miterlimit="10"/></g><g transform="translate(-214,-6) scale(1,1)"><path fill="#FFFFFF" stroke="none" d="M 299.9117561580347 220.7879354541487 L 304 231 L 308.33019514648834 220.88815496591602 L 304.2618862048663 209.00155879123022"/></g><g transform="translate(-214,-6) scale(1,1)"><path fill="none" stroke="#000000" d="M 299.9117561580347 220.7879354541487 L 304 231 L 308.33019514648834 220.88815496591602 L 304.2618862048663 209.00155879123022 L 299.9117561580347 220.7879354541487" stroke-miterlimit="10"/></g><g transform="translate(-214,-6) scale(1,1)"><path fill="none" stroke="#000000" d="M 373 503 L 529 361" stroke-miterlimit="10"/></g><g transform="translate(-214,-6) scale(1,1)"><path fill="none" stroke="#000000" d="M 388 143 L 527 248" stroke-miterlimit="10"/></g><g transform="translate(-214,-6) scale(1,1)"><path fill="none" stroke="#000000" d="M 834 503 L 665 359" stroke-miterlimit="10"/></g><g transform="translate(-214,-6) scale(1,1)"><path fill="none" stroke="#000000" d="M 839 129 L 665 251" stroke-miterlimit="10"/></g><g transform="translate(-214,-6) scale(1,1)"><path fill="none" stroke="#000000" d="M 387 320 L 527 307" stroke-miterlimit="10"/></g><g transform="translate(-214,-6) scale(1,1)"><rect fill="#C0C0C0" stroke="none" x="535" y="23" width="164.009765625" height="135" opacity="0.2"/></g><g transform="translate(-214,-6) scale(1,1)"><rect fill="#ffffff" stroke="none" x="528" y="16" width="164.009765625" height="135"/></g><g transform="translate(-214,-6) scale(1,1)"><path fill="none" stroke="#000000" d="M 528 16 L 692.009765625 16 L 692.009765625 151 L 528 151 L 528 16 Z Z" stroke-miterlimit="10"/></g><g transform="translate(-214,-6) scale(1,1)"><path fill="none" stroke="#000000" d="M 528 41 L 692.009765625 41" stroke-miterlimit="10"/></g><g transform="translate(-214,-6) scale(1,1)"><path fill="none" stroke="#000000" d="M 528 79 L 692.009765625 79" stroke-miterlimit="10"/></g><g transform="translate(-214,-6) scale(1,1)"><g><path fill="none" stroke="none"/><text fill="#000000" stroke="none" font-family="Arial" font-size="13px" font-style="normal" font-weight="bold" text-decoration="none" x="557.255859375" y="35.5">GenerarPasajeros</text></g></g><g transform="translate(-214,-6) scale(1,1)"><g><path fill="none" stroke="none"/><text fill="#000000" stroke="none" font-family="Arial" font-size="13px" font-style="normal" font-weight="normal" text-decoration="none" x="533" y="58.5">+monitorTren</text></g></g><g transform="translate(-214,-6) scale(1,1)"><g><path fill="none" stroke="none"/><text fill="#000000" stroke="none" font-family="Arial" font-size="13px" font-style="normal" font-weight="normal" text-decoration="none" x="533" y="73.5">+pasajeros</text></g></g><g transform="translate(-214,-6) scale(1,1)"><g><path fill="none" stroke="none"/><text fill="#000000" stroke="none" font-family="Arial" font-size="13px" font-style="normal" font-weight="normal" text-decoration="none" x="533" y="96.5">+GenerarPasajeros()</text></g></g><g transform="translate(-214,-6) scale(1,1)"><g><path fill="none" stroke="none"/><text fill="#000000" stroke="none" font-family="Arial" font-size="13px" font-style="normal" font-weight="normal" text-decoration="none" x="533" y="111.5">+getPasajeros()</text></g></g><g transform="translate(-214,-6) scale(1,1)"><g><path fill="none" stroke="none"/><text fill="#000000" stroke="none" font-family="Arial" font-size="13px" font-style="normal" font-weight="normal" text-decoration="none" x="533" y="126.5">+setPasajeros()</text></g></g><g transform="translate(-214,-6) scale(1,1)"><g><path fill="none" stroke="none"/><text fill="#000000" stroke="none" font-family="Arial" font-size="13px" font-style="normal" font-weight="normal" text-decoration="none" x="533" y="141.5">+getPasajerosEsperando()</text></g></g><g transform="translate(-214,-6) scale(1,1)"><rect fill="#C0C0C0" stroke="none" x="535" y="511" width="194.009765625" height="133" opacity="0.2"/></g><g transform="translate(-214,-6) scale(1,1)"><rect fill="#ffffff" stroke="none" x="528" y="504" width="194.009765625" height="133"/></g><g transform="translate(-214,-6) scale(1,1)"><path fill="none" stroke="#000000" d="M 528 504 L 722.009765625 504 L 722.009765625 637 L 528 637 L 528 504 Z Z" stroke-miterlimit="10"/></g><g transform="translate(-214,-6) scale(1,1)"><path fill="none" stroke="#000000" d="M 528 529 L 722.009765625 529" stroke-miterlimit="10"/></g><g transform="translate(-214,-6) scale(1,1)"><path fill="none" stroke="#000000" d="M 528 567 L 722.009765625 567" stroke-miterlimit="10"/></g><g transform="translate(-214,-6) scale(1,1)"><g><path fill="none" stroke="none"/><text fill="#000000" stroke="none" font-family="Arial" font-size="13px" font-style="normal" font-weight="bold" text-decoration="none" x="572.976318359375" y="523.5">GenerarVehiculos</text></g></g><g transform="translate(-214,-6) scale(1,1)"><g><path fill="none" stroke="none"/><text fill="#000000" stroke="none" font-family="Arial" font-size="13px" font-style="normal" font-weight="normal" text-decoration="none" x="533" y="546.5">+monitorTren</text></g></g><g transform="translate(-214,-6) scale(1,1)"><g><path fill="none" stroke="none"/><text fill="#000000" stroke="none" font-family="Arial" font-size="13px" font-style="normal" font-weight="normal" text-decoration="none" x="533" y="561.5">+pasajeros</text></g></g><g transform="translate(-214,-6) scale(1,1)"><g><path fill="none" stroke="none"/><text fill="#000000" stroke="none" font-family="Arial" font-size="13px" font-style="normal" font-weight="normal" text-decoration="none" x="533" y="584.5">+GenerarVehiculos()</text></g></g><g transform="translate(-214,-6) scale(1,1)"><g><path fill="none" stroke="none"/><text fill="#000000" stroke="none" font-family="Arial" font-size="13px" font-style="normal" font-weight="normal" text-decoration="none" x="533" y="599.5">+getPasajeros()</text></g></g><g transform="translate(-214,-6) scale(1,1)"><g><path fill="none" stroke="none"/><text fill="#000000" stroke="none" font-family="Arial" font-size="13px" font-style="normal" font-weight="normal" text-decoration="none" x="533" y="614.5">+setPasajeros()</text></g></g><g transform="translate(-214,-6) scale(1,1)"><g><path fill="none" stroke="none"/><text fill="#000000" stroke="none" font-family="Arial" font-size="13px" font-style="normal" font-weight="normal" text-decoration="none" x="533" y="629.5">+getPasajerosEsperando()</text></g></g><g transform="translate(-214,-6) scale(1,1)"><path fill="none" stroke="#000000" d="M 695 503 L 844 361" stroke-miterlimit="10"/></g><g transform="translate(-214,-6) scale(1,1)"><path fill="#FFFFFF" stroke="none" d="M 835.0946146930538 381.1170105267862 L 844 361 L 823.4780670996876 368.927816221071"/></g><g transform="translate(-214,-6) scale(1,1)"><path fill="none" stroke="#000000" d="M 835.0946146930538 381.1170105267862 L 844 361 L 823.4780670996876 368.927816221071 L 835.0946146930538 381.1170105267862" stroke-miterlimit="10"/></g><g transform="translate(-214,-6) scale(1,1)"><path fill="none" stroke="#000000" d="M 693 143 L 839 250" stroke-miterlimit="10"/></g><g transform="translate(-214,-6) scale(1,1)"><path fill="#FFFFFF" stroke="none" d="M 817.6292722387682 244.77582590687166 L 839 250 L 827.5826624084915 231.1945645537912"/></g><g transform="translate(-214,-6) scale(1,1)"><path fill="none" stroke="#000000" d="M 817.6292722387682 244.77582590687166 L 839 250 L 827.5826624084915 231.1945645537912 L 817.6292722387682 244.77582590687166" stroke-miterlimit="10"/></g></g></svg>