<svg version="1.1" xmlns="http://www.w3.org/2000/svg" xmlns:xlink="http://www.w3.org/1999/xlink" width="1441.69140625" height="860"><defs/><g><g transform="translate(-182,-6) scale(1,1)"><rect fill="#C0C0C0" stroke="none" x="1271" y="223" width="349.69140625" height="184" opacity="0.2"/></g><g transform="translate(-182,-6) scale(1,1)"><rect fill="#ffffff" stroke="none" x="1264" y="216" width="349.69140625" height="184"/></g><g transform="translate(-182,-6) scale(1,1)"><path fill="none" stroke="#000000" d="M 1264 216 L 1613.69140625 216 L 1613.69140625 400 L 1264 400 L 1264 216 Z Z" stroke-miterlimit="10"/></g><g transform="translate(-182,-6) scale(1,1)"><path fill="none" stroke="#000000" d="M 1264 241 L 1613.69140625 241" stroke-miterlimit="10"/></g><g transform="translate(-182,-6) scale(1,1)"><path fill="none" stroke="#000000" d="M 1264 324 L 1613.69140625 324" stroke-miterlimit="10"/></g><g transform="translate(-182,-6) scale(1,1)"><g><path fill="none" stroke="none"/><text fill="#000000" stroke="none" font-family="Arial" font-size="13px" font-style="normal" font-weight="bold" text-decoration="none" x="1424.757080078125" y="235.5">Main</text></g></g><g transform="translate(-182,-6) scale(1,1)"><g><path fill="none" stroke="none"/><text fill="#000000" stroke="none" font-family="Arial" font-size="13px" font-style="normal" font-weight="normal" text-decoration="none" x="1269" y="258.5">+marcadoInicial: String</text></g></g><g transform="translate(-182,-6) scale(1,1)"><g><path fill="none" stroke="none"/><text fill="#000000" stroke="none" font-family="Arial" font-size="13px" font-style="normal" font-weight="normal" text-decoration="none" x="1269" y="273.5">+matrizInhibicion: String</text></g></g><g transform="translate(-182,-6) scale(1,1)"><g><path fill="none" stroke="none"/><text fill="#000000" stroke="none" font-family="Arial" font-size="13px" font-style="normal" font-weight="normal" text-decoration="none" x="1269" y="288.5">+matrizIMas: String</text></g></g><g transform="translate(-182,-6) scale(1,1)"><g><path fill="none" stroke="none"/><text fill="#000000" stroke="none" font-family="Arial" font-size="13px" font-style="normal" font-weight="normal" text-decoration="none" x="1269" y="303.5">+matrizIMenos: String</text></g></g><g transform="translate(-182,-6) scale(1,1)"><g><path fill="none" stroke="none"/><text fill="#000000" stroke="none" font-family="Arial" font-size="13px" font-style="normal" font-weight="normal" text-decoration="none" x="1269" y="318.5">+testOutput: String</text></g></g><g transform="translate(-182,-6) scale(1,1)"><g><path fill="none" stroke="none"/><text fill="#000000" stroke="none" font-family="Arial" font-size="13px" font-style="normal" font-weight="normal" text-decoration="none" x="1269" y="341.5">+main(String[])</text></g></g><g transform="translate(-182,-6) scale(1,1)"><g><path fill="none" stroke="none"/><text fill="#000000" stroke="none" font-family="Arial" font-size="13px" font-style="normal" font-weight="normal" text-decoration="none" x="1269" y="356.5">+getMatrix(String): Integer[][]()</text></g></g><g transform="translate(-182,-6) scale(1,1)"><g><path fill="none" stroke="none"/><text fill="#000000" stroke="none" font-family="Arial" font-size="13px" font-style="normal" font-weight="normal" text-decoration="none" x="1269" y="371.5">+marcadoInicial(String): LinkedHashMap&lt;String, Integer&gt;()</text></g></g><g transform="translate(-182,-6) scale(1,1)"><g><path fill="none" stroke="none"/><text fill="#000000" stroke="none" font-family="Arial" font-size="13px" font-style="normal" font-weight="normal" text-decoration="none" x="1269" y="386.5">+getTransiciones(String): ArrayList&lt;String&gt;()</text></g></g><g transform="translate(-182,-6) scale(1,1)"><rect fill="#C0C0C0" stroke="none" x="199" y="191" width="824" height="505" opacity="0.2"/></g><g transform="translate(-182,-6) scale(1,1)"><rect fill="#ffffff" stroke="none" x="192" y="184" width="824" height="505"/></g><g transform="translate(-182,-6) scale(1,1)"><path fill="none" stroke="#000000" d="M 192 184 L 1016 184 L 1016 689 L 192 689 L 192 184 Z Z" stroke-miterlimit="10"/></g><g transform="translate(-182,-6) scale(1,1)"><path fill="none" stroke="#000000" d="M 192 209 L 1016 209" stroke-miterlimit="10"/></g><g transform="translate(-182,-6) scale(1,1)"><path fill="none" stroke="#000000" d="M 192 442 L 1016 442" stroke-miterlimit="10"/></g><g transform="translate(-182,-6) scale(1,1)"><g><path fill="none" stroke="none"/><text fill="#000000" stroke="none" font-family="Arial" font-size="13px" font-style="normal" font-weight="bold" text-decoration="none" x="582.325927734375" y="203.5">Monitor</text></g></g><g transform="translate(-182,-6) scale(1,1)"><g><path fill="none" stroke="none"/><text fill="#000000" stroke="none" font-family="Arial" font-size="13px" font-style="normal" font-weight="normal" text-decoration="none" x="197" y="226.5">+matrizMas: Integer [][]</text></g></g><g transform="translate(-182,-6) scale(1,1)"><g><path fill="none" stroke="none"/><text fill="#000000" stroke="none" font-family="Arial" font-size="13px" font-style="normal" font-weight="normal" text-decoration="none" x="197" y="241.5">+matrizMenos: Integer [][]</text></g></g><g transform="translate(-182,-6) scale(1,1)"><g><path fill="none" stroke="none"/><text fill="#000000" stroke="none" font-family="Arial" font-size="13px" font-style="normal" font-weight="normal" text-decoration="none" x="197" y="256.5">+matrizInhibicion: Integer [][]</text></g></g><g transform="translate(-182,-6) scale(1,1)"><g><path fill="none" stroke="none"/><text fill="#000000" stroke="none" font-family="Arial" font-size="13px" font-style="normal" font-weight="normal" text-decoration="none" x="197" y="271.5">+marcado: Integer []</text></g></g><g transform="translate(-182,-6) scale(1,1)"><g><path fill="none" stroke="none"/><text fill="#000000" stroke="none" font-family="Arial" font-size="13px" font-style="normal" font-weight="normal" text-decoration="none" x="197" y="286.5">+marcadoInicial: LinkedHashMap&lt;String, Integer&gt;</text></g></g><g transform="translate(-182,-6) scale(1,1)"><g><path fill="none" stroke="none"/><text fill="#000000" stroke="none" font-family="Arial" font-size="13px" font-style="normal" font-weight="normal" text-decoration="none" x="197" y="301.5">+plazas: ArrayList&lt;String&gt;</text></g></g><g transform="translate(-182,-6) scale(1,1)"><g><path fill="none" stroke="none"/><text fill="#000000" stroke="none" font-family="Arial" font-size="13px" font-style="normal" font-weight="normal" text-decoration="none" x="197" y="316.5">+transiciones: ArrayList&lt;String&gt;</text></g></g><g transform="translate(-182,-6) scale(1,1)"><g><path fill="none" stroke="none"/><text fill="#000000" stroke="none" font-family="Arial" font-size="13px" font-style="normal" font-weight="normal" text-decoration="none" x="197" y="331.5">+colaCondicion: LinkedHashMap&lt;String, Condition&gt;</text></g></g><g transform="translate(-182,-6) scale(1,1)"><g><path fill="none" stroke="none"/><text fill="#000000" stroke="none" font-family="Arial" font-size="13px" font-style="normal" font-weight="normal" text-decoration="none" x="197" y="346.5">+transicionesGeneradoras: ArrayList&lt;String&gt;</text></g></g><g transform="translate(-182,-6) scale(1,1)"><g><path fill="none" stroke="none"/><text fill="#000000" stroke="none" font-family="Arial" font-size="13px" font-style="normal" font-weight="normal" text-decoration="none" x="197" y="361.5">+abordarTren:LinkedHashMap&lt;String, String&gt;</text></g></g><g transform="translate(-182,-6) scale(1,1)"><g><path fill="none" stroke="none"/><text fill="#000000" stroke="none" font-family="Arial" font-size="13px" font-style="normal" font-weight="normal" text-decoration="none" x="197" y="376.5">+descenderTren:LinkedHashMap&lt;String, String&gt;</text></g></g><g transform="translate(-182,-6) scale(1,1)"><g><path fill="none" stroke="none"/><text fill="#000000" stroke="none" font-family="Arial" font-size="13px" font-style="normal" font-weight="normal" text-decoration="none" x="197" y="391.5">+ultimaSubidaEstacion: LinkedHashMap&lt;String, Date&gt;</text></g></g><g transform="translate(-182,-6) scale(1,1)"><g><path fill="none" stroke="none"/><text fill="#000000" stroke="none" font-family="Arial" font-size="13px" font-style="normal" font-weight="normal" text-decoration="none" x="197" y="406.5">+ultimoArrivoEstacion: Date</text></g></g><g transform="translate(-182,-6) scale(1,1)"><g><path fill="none" stroke="none"/><text fill="#000000" stroke="none" font-family="Arial" font-size="13px" font-style="normal" font-weight="normal" text-decoration="none" x="197" y="421.5">+lock: ReentrantLock</text></g></g><g transform="translate(-182,-6) scale(1,1)"><g><path fill="none" stroke="none"/><text fill="#000000" stroke="none" font-family="Arial" font-size="13px" font-style="normal" font-weight="normal" text-decoration="none" x="197" y="436.5">+accionPorTransicion: HashMap&lt;String, String&gt;</text></g></g><g transform="translate(-182,-6) scale(1,1)"><g><path fill="none" stroke="none"/><text fill="#000000" stroke="none" font-family="Arial" font-size="13px" font-style="normal" font-weight="normal" text-decoration="none" x="197" y="459.5">+continuarRecorridoTren(): Long</text></g></g><g transform="translate(-182,-6) scale(1,1)"><g><path fill="none" stroke="none"/><text fill="#000000" stroke="none" font-family="Arial" font-size="13px" font-style="normal" font-weight="normal" text-decoration="none" x="197" y="474.5">+partidaTren(): void</text></g></g><g transform="translate(-182,-6) scale(1,1)"><g><path fill="none" stroke="none"/><text fill="#000000" stroke="none" font-family="Arial" font-size="13px" font-style="normal" font-weight="normal" text-decoration="none" x="197" y="489.5">+arriboTrenEstacion(): void</text></g></g><g transform="translate(-182,-6) scale(1,1)"><g><path fill="none" stroke="none"/><text fill="#000000" stroke="none" font-family="Arial" font-size="13px" font-style="normal" font-weight="normal" text-decoration="none" x="197" y="504.5">+abordarTren(): void</text></g></g><g transform="translate(-182,-6) scale(1,1)"><g><path fill="none" stroke="none"/><text fill="#000000" stroke="none" font-family="Arial" font-size="13px" font-style="normal" font-weight="normal" text-decoration="none" x="197" y="519.5">+descenderTren(): Long</text></g></g><g transform="translate(-182,-6) scale(1,1)"><g><path fill="none" stroke="none"/><text fill="#000000" stroke="none" font-family="Arial" font-size="13px" font-style="normal" font-weight="normal" text-decoration="none" x="197" y="534.5">+cruzarPasoNivel(): void</text></g></g><g transform="translate(-182,-6) scale(1,1)"><g><path fill="none" stroke="none"/><text fill="#000000" stroke="none" font-family="Arial" font-size="13px" font-style="normal" font-weight="normal" text-decoration="none" x="197" y="549.5">+liberarBarreraPasoNivel(): void</text></g></g><g transform="translate(-182,-6) scale(1,1)"><g><path fill="none" stroke="none"/><text fill="#000000" stroke="none" font-family="Arial" font-size="13px" font-style="normal" font-weight="normal" text-decoration="none" x="197" y="564.5">+generarPasajeros(): void</text></g></g><g transform="translate(-182,-6) scale(1,1)"><g><path fill="none" stroke="none"/><text fill="#000000" stroke="none" font-family="Arial" font-size="13px" font-style="normal" font-weight="normal" text-decoration="none" x="197" y="579.5">+generarTransito(): void</text></g></g><g transform="translate(-182,-6) scale(1,1)"><g><path fill="none" stroke="none"/><text fill="#000000" stroke="none" font-family="Arial" font-size="13px" font-style="normal" font-weight="normal" text-decoration="none" x="197" y="594.5">+interseccionPrioritarias(): String</text></g></g><g transform="translate(-182,-6) scale(1,1)"><g><path fill="none" stroke="none"/><text fill="#000000" stroke="none" font-family="Arial" font-size="13px" font-style="normal" font-weight="normal" text-decoration="none" x="197" y="609.5">+getInterseccionCondicion(LinkedHashMap&lt;String, Boolean&gt;vs) :  LinkedHashMap&lt;String, Boolean&gt;()</text></g></g><g transform="translate(-182,-6) scale(1,1)"><g><path fill="none" stroke="none"/><text fill="#000000" stroke="none" font-family="Arial" font-size="13px" font-style="normal" font-weight="normal" text-decoration="none" x="197" y="624.5">+getInterseccionInhibicion(LinkedHashMap&lt;String, Boolean&gt;vs, LinkedHashMap&lt;String, Boolean&gt;vi) :  LinkedHashMap&lt;String, Boolean&gt;()</text></g></g><g transform="translate(-182,-6) scale(1,1)"><g><path fill="none" stroke="none"/><text fill="#000000" stroke="none" font-family="Arial" font-size="13px" font-style="normal" font-weight="normal" text-decoration="none" x="197" y="639.5">+getSensibilizadas: LinkedHashMap&lt;String, Boolen&gt;()</text></g></g><g transform="translate(-182,-6) scale(1,1)"><g><path fill="none" stroke="none"/><text fill="#000000" stroke="none" font-family="Arial" font-size="13px" font-style="normal" font-weight="normal" text-decoration="none" x="197" y="654.5">+getInhibidas():LinkedHashMap&lt;String, Boolean&gt;()</text></g></g><g transform="translate(-182,-6) scale(1,1)"><g><path fill="none" stroke="none"/><text fill="#000000" stroke="none" font-family="Arial" font-size="13px" font-style="normal" font-weight="normal" text-decoration="none" x="197" y="669.5">+dispararRed(String): Boolean()</text></g></g><g transform="translate(-182,-6) scale(1,1)"><g><path fill="none" stroke="none"/><text fill="#000000" stroke="none" font-family="Arial" font-size="13px" font-style="normal" font-weight="normal" text-decoration="none" x="197" y="684.5">+dispararRed(Integer[]): Boolean()</text></g></g><g transform="translate(-182,-6) scale(1,1)"><rect fill="#C0C0C0" stroke="none" x="1367" y="23" width="160" height="96" opacity="0.2"/></g><g transform="translate(-182,-6) scale(1,1)"><rect fill="#ffffff" stroke="none" x="1360" y="16" width="160" height="96"/></g><g transform="translate(-182,-6) scale(1,1)"><path fill="none" stroke="#000000" d="M 1360 16 L 1520 16 L 1520 112 L 1360 112 L 1360 16 Z Z" stroke-miterlimit="10"/></g><g transform="translate(-182,-6) scale(1,1)"><path fill="none" stroke="#000000" d="M 1360 41 L 1520 41" stroke-miterlimit="10"/></g><g transform="translate(-182,-6) scale(1,1)"><path fill="none" stroke="#000000" d="M 1360 79 L 1520 79" stroke-miterlimit="10"/></g><g transform="translate(-182,-6) scale(1,1)"><g><path fill="none" stroke="none"/><text fill="#000000" stroke="none" font-family="Arial" font-size="13px" font-style="normal" font-weight="bold" text-decoration="none" x="1426.635009765625" y="35.5">Tren</text></g></g><g transform="translate(-182,-6) scale(1,1)"><g><path fill="none" stroke="none"/><text fill="#000000" stroke="none" font-family="Arial" font-size="13px" font-style="normal" font-weight="normal" text-decoration="none" x="1365" y="58.5">+monitorTren: Monitor</text></g></g><g transform="translate(-182,-6) scale(1,1)"><g><path fill="none" stroke="none"/><text fill="#000000" stroke="none" font-family="Arial" font-size="13px" font-style="normal" font-weight="normal" text-decoration="none" x="1365" y="73.5">+Tren(Monitor, String)</text></g></g><g transform="translate(-182,-6) scale(1,1)"><g><path fill="none" stroke="none"/><text fill="#000000" stroke="none" font-family="Arial" font-size="13px" font-style="normal" font-weight="normal" text-decoration="none" x="1365" y="96.5">+run(): void</text></g></g><g transform="translate(-182,-6) scale(1,1)"><rect fill="#C0C0C0" stroke="none" x="959" y="759" width="256" height="104" opacity="0.2"/></g><g transform="translate(-182,-6) scale(1,1)"><rect fill="#ffffff" stroke="none" x="952" y="752" width="256" height="104"/></g><g transform="translate(-182,-6) scale(1,1)"><path fill="none" stroke="#000000" d="M 952 752 L 1208 752 L 1208 856 L 952 856 L 952 752 Z Z" stroke-miterlimit="10"/></g><g transform="translate(-182,-6) scale(1,1)"><path fill="none" stroke="#000000" d="M 952 777 L 1208 777" stroke-miterlimit="10"/></g><g transform="translate(-182,-6) scale(1,1)"><path fill="none" stroke="#000000" d="M 952 815 L 1208 815" stroke-miterlimit="10"/></g><g transform="translate(-182,-6) scale(1,1)"><g><path fill="none" stroke="none"/><text fill="#000000" stroke="none" font-family="Arial" font-size="13px" font-style="normal" font-weight="bold" text-decoration="none" x="1035.921875" y="771.5">SubirPasajeros</text></g></g><g transform="translate(-182,-6) scale(1,1)"><g><path fill="none" stroke="none"/><text fill="#000000" stroke="none" font-family="Arial" font-size="13px" font-style="normal" font-weight="normal" text-decoration="none" x="957" y="794.5">+monitorTren: Monitor</text></g></g><g transform="translate(-182,-6) scale(1,1)"><g><path fill="none" stroke="none"/><text fill="#000000" stroke="none" font-family="Arial" font-size="13px" font-style="normal" font-weight="normal" text-decoration="none" x="957" y="809.5">+SubirPasajeros(Monitor, String, String)</text></g></g><g transform="translate(-182,-6) scale(1,1)"><g><path fill="none" stroke="none"/><text fill="#000000" stroke="none" font-family="Arial" font-size="13px" font-style="normal" font-weight="normal" text-decoration="none" x="957" y="832.5">+run(): void</text></g></g><g transform="translate(-182,-6) scale(1,1)"><rect fill="#C0C0C0" stroke="none" x="1327" y="759" width="239.12158203125" height="104" opacity="0.2"/></g><g transform="translate(-182,-6) scale(1,1)"><rect fill="#ffffff" stroke="none" x="1320" y="752" width="239.12158203125" height="104"/></g><g transform="translate(-182,-6) scale(1,1)"><path fill="none" stroke="#000000" d="M 1320 752 L 1559.12158203125 752 L 1559.12158203125 856 L 1320 856 L 1320 752 Z Z" stroke-miterlimit="10"/></g><g transform="translate(-182,-6) scale(1,1)"><path fill="none" stroke="#000000" d="M 1320 777 L 1559.12158203125 777" stroke-miterlimit="10"/></g><g transform="translate(-182,-6) scale(1,1)"><path fill="none" stroke="#000000" d="M 1320 815 L 1559.12158203125 815" stroke-miterlimit="10"/></g><g transform="translate(-182,-6) scale(1,1)"><g><path fill="none" stroke="none"/><text fill="#000000" stroke="none" font-family="Arial" font-size="13px" font-style="normal" font-weight="bold" text-decoration="none" x="1395.482666015625" y="771.5">BajarPasajeros</text></g></g><g transform="translate(-182,-6) scale(1,1)"><g><path fill="none" stroke="none"/><text fill="#000000" stroke="none" font-family="Arial" font-size="13px" font-style="normal" font-weight="normal" text-decoration="none" x="1325" y="794.5">+monitorTren: Monitor</text></g></g><g transform="translate(-182,-6) scale(1,1)"><g><path fill="none" stroke="none"/><text fill="#000000" stroke="none" font-family="Arial" font-size="13px" font-style="normal" font-weight="normal" text-decoration="none" x="1325" y="809.5">+BajarPasajeros(Monitor, String, String)</text></g></g><g transform="translate(-182,-6) scale(1,1)"><g><path fill="none" stroke="none"/><text fill="#000000" stroke="none" font-family="Arial" font-size="13px" font-style="normal" font-weight="normal" text-decoration="none" x="1325" y="832.5">+run(): void</text></g></g><g transform="translate(-182,-6) scale(1,1)"><rect fill="#C0C0C0" stroke="none" x="671" y="23" width="264" height="96" opacity="0.2"/></g><g transform="translate(-182,-6) scale(1,1)"><rect fill="#ffffff" stroke="none" x="664" y="16" width="264" height="96"/></g><g transform="translate(-182,-6) scale(1,1)"><path fill="none" stroke="#000000" d="M 664 16 L 928 16 L 928 112 L 664 112 L 664 16 Z Z" stroke-miterlimit="10"/></g><g transform="translate(-182,-6) scale(1,1)"><path fill="none" stroke="#000000" d="M 664 41 L 928 41" stroke-miterlimit="10"/></g><g transform="translate(-182,-6) scale(1,1)"><path fill="none" stroke="#000000" d="M 664 79 L 928 79" stroke-miterlimit="10"/></g><g transform="translate(-182,-6) scale(1,1)"><g><path fill="none" stroke="none"/><text fill="#000000" stroke="none" font-family="Arial" font-size="13px" font-style="normal" font-weight="bold" text-decoration="none" x="766.7373046875" y="35.5">PasoNivel</text></g></g><g transform="translate(-182,-6) scale(1,1)"><g><path fill="none" stroke="none"/><text fill="#000000" stroke="none" font-family="Arial" font-size="13px" font-style="normal" font-weight="normal" text-decoration="none" x="669" y="58.5">+monitorTren: Monitor</text></g></g><g transform="translate(-182,-6) scale(1,1)"><g><path fill="none" stroke="none"/><text fill="#000000" stroke="none" font-family="Arial" font-size="13px" font-style="normal" font-weight="normal" text-decoration="none" x="669" y="73.5">+PasoNivel(Monitor, String, String)</text></g></g><g transform="translate(-182,-6) scale(1,1)"><g><path fill="none" stroke="none"/><text fill="#000000" stroke="none" font-family="Arial" font-size="13px" font-style="normal" font-weight="normal" text-decoration="none" x="669" y="96.5">+run(): void</text></g></g><g transform="translate(-182,-6) scale(1,1)"><path fill="none" stroke="#000000" d="M 1359 100 L 1017 252" stroke-miterlimit="10"/></g><g transform="translate(-182,-6) scale(1,1)"><path fill="#FFFFFF" stroke="none" d="M 1024.5771225655167 244.02584088275515 L 1017 252 L 1027.9964167340227 251.71925276189404 L 1037.1038540696456 243.06495374682416"/></g><g transform="translate(-182,-6) scale(1,1)"><path fill="none" stroke="#000000" d="M 1024.5771225655167 244.02584088275515 L 1017 252 L 1027.9964167340227 251.71925276189404 L 1037.1038540696456 243.06495374682416 L 1024.5771225655167 244.02584088275515" stroke-miterlimit="10"/></g><g transform="translate(-182,-6) scale(1,1)"><path fill="none" stroke="#000000" d="M 1011 751 L 933 690" stroke-miterlimit="10"/></g><g transform="translate(-182,-6) scale(1,1)"><path fill="#FFFFFF" stroke="none" d="M 943.5985366868774 692.9446595893098 L 933 690 L 938.4121083980584 699.5764859258323 L 950.3297973615843 703.5527902443159"/></g><g transform="translate(-182,-6) scale(1,1)"><path fill="none" stroke="#000000" d="M 943.5985366868774 692.9446595893098 L 933 690 L 938.4121083980584 699.5764859258323 L 950.3297973615843 703.5527902443159 L 943.5985366868774 692.9446595893098" stroke-miterlimit="10"/></g><g transform="translate(-182,-6) scale(1,1)"><path fill="none" stroke="#000000" d="M 1319 751 L 1017 618" stroke-miterlimit="10"/></g><g transform="translate(-182,-6) scale(1,1)"><path fill="#FFFFFF" stroke="none" d="M 1027.9973039651497 618.2435272019786 L 1017 618 L 1024.6040684726045 625.9484679444495 L 1037.133980441359 626.866951651327"/></g><g transform="translate(-182,-6) scale(1,1)"><path fill="none" stroke="#000000" d="M 1027.9973039651497 618.2435272019786 L 1017 618 L 1024.6040684726045 625.9484679444495 L 1037.133980441359 626.866951651327 L 1027.9973039651497 618.2435272019786" stroke-miterlimit="10"/></g><g transform="translate(-182,-6) scale(1,1)"><path fill="none" stroke="#000000" d="M 771 113 L 735 183" stroke-miterlimit="10"/></g><g transform="translate(-182,-6) scale(1,1)"><path fill="#FFFFFF" stroke="none" d="M 735.9044063549787 172.03724263038382 L 735 183 L 743.3913519431121 175.88767178999524 L 745.0616562776568 163.43566834900076"/></g><g transform="translate(-182,-6) scale(1,1)"><path fill="none" stroke="#000000" d="M 735.9044063549787 172.03724263038382 L 735 183 L 743.3913519431121 175.88767178999524 L 745.0616562776568 163.43566834900076 L 735.9044063549787 172.03724263038382" stroke-miterlimit="10"/></g><g transform="translate(-182,-6) scale(1,1)"><path fill="none" stroke="#000000" d="M 1118 751 L 1371 401" stroke-miterlimit="10"/></g><g transform="translate(-182,-6) scale(1,1)"><path fill="none" stroke="#000000" d="M 925 113 L 1263 241" stroke-miterlimit="10"/></g><g transform="translate(-182,-6) scale(1,1)"><path fill="none" stroke="#000000" d="M 1439 751 L 1438 401" stroke-miterlimit="10"/></g><g transform="translate(-182,-6) scale(1,1)"><path fill="none" stroke="#000000" d="M 1440 113 L 1439 215" stroke-miterlimit="10"/></g><g transform="translate(-182,-6) scale(1,1)"><path fill="none" stroke="#000000" d="M 1017 373 L 1263 335" stroke-miterlimit="10"/></g><g transform="translate(-182,-6) scale(1,1)"><rect fill="#C0C0C0" stroke="none" x="1055" y="23" width="213.115234375" height="96" opacity="0.2"/></g><g transform="translate(-182,-6) scale(1,1)"><rect fill="#ffffff" stroke="none" x="1048" y="16" width="213.115234375" height="96"/></g><g transform="translate(-182,-6) scale(1,1)"><path fill="none" stroke="#000000" d="M 1048 16 L 1261.115234375 16 L 1261.115234375 112 L 1048 112 L 1048 16 Z Z" stroke-miterlimit="10"/></g><g transform="translate(-182,-6) scale(1,1)"><path fill="none" stroke="#000000" d="M 1048 41 L 1261.115234375 41" stroke-miterlimit="10"/></g><g transform="translate(-182,-6) scale(1,1)"><path fill="none" stroke="#000000" d="M 1048 79 L 1261.115234375 79" stroke-miterlimit="10"/></g><g transform="translate(-182,-6) scale(1,1)"><g><path fill="none" stroke="none"/><text fill="#000000" stroke="none" font-family="Arial" font-size="13px" font-style="normal" font-weight="bold" text-decoration="none" x="1123.482666015625" y="35.5">Generador</text></g></g><g transform="translate(-182,-6) scale(1,1)"><g><path fill="none" stroke="none"/><text fill="#000000" stroke="none" font-family="Arial" font-size="13px" font-style="normal" font-weight="normal" text-decoration="none" x="1053" y="58.5">+monitorTren: Monitor</text></g></g><g transform="translate(-182,-6) scale(1,1)"><g><path fill="none" stroke="none"/><text fill="#000000" stroke="none" font-family="Arial" font-size="13px" font-style="normal" font-weight="normal" text-decoration="none" x="1053" y="73.5">+Generador(Monitor, String, String)</text></g></g><g transform="translate(-182,-6) scale(1,1)"><g><path fill="none" stroke="none"/><text fill="#000000" stroke="none" font-family="Arial" font-size="13px" font-style="normal" font-weight="normal" text-decoration="none" x="1053" y="96.5">+run(): void</text></g></g><g transform="translate(-182,-6) scale(1,1)"><path fill="none" stroke="#000000" d="M 1211 113 L 1330 215" stroke-miterlimit="10"/></g></g></svg>