<svg version="1.1" xmlns="http://www.w3.org/2000/svg" xmlns:xlink="http://www.w3.org/1999/xlink" width="772" height="580"><defs/><g><g transform="translate(-214,-6) scale(1,1)"><rect fill="#C0C0C0" stroke="none" x="535" y="215" width="159.15380859375" height="120" opacity="0.2"/></g><g transform="translate(-214,-6) scale(1,1)"><rect fill="#ffffff" stroke="none" x="528" y="208" width="159.15380859375" height="120"/></g><g transform="translate(-214,-6) scale(1,1)"><path fill="none" stroke="#000000" d="M 528 208 L 687.15380859375 208 L 687.15380859375 328 L 528 328 L 528 208 Z Z" stroke-miterlimit="10"/></g><g transform="translate(-214,-6) scale(1,1)"><path fill="none" stroke="#000000" d="M 528 233 L 687.15380859375 233" stroke-miterlimit="10"/></g><g transform="translate(-214,-6) scale(1,1)"><path fill="none" stroke="#000000" d="M 528 316 L 687.15380859375 316" stroke-miterlimit="10"/></g><g transform="translate(-214,-6) scale(1,1)"><g><path fill="none" stroke="none"/><text fill="#000000" stroke="none" font-family="Arial" font-size="13px" font-style="normal" font-weight="bold" text-decoration="none" x="593.48828125" y="227.5">Main</text></g></g><g transform="translate(-214,-6) scale(1,1)"><g><path fill="none" stroke="none"/><text fill="#000000" stroke="none" font-family="Arial" font-size="13px" font-style="normal" font-weight="normal" text-decoration="none" x="533" y="250.5">+marcadoInicial</text></g></g><g transform="translate(-214,-6) scale(1,1)"><g><path fill="none" stroke="none"/><text fill="#000000" stroke="none" font-family="Arial" font-size="13px" font-style="normal" font-weight="normal" text-decoration="none" x="533" y="265.5">+matrizInhibicion</text></g></g><g transform="translate(-214,-6) scale(1,1)"><g><path fill="none" stroke="none"/><text fill="#000000" stroke="none" font-family="Arial" font-size="13px" font-style="normal" font-weight="normal" text-decoration="none" x="533" y="280.5">+matrizIMas</text></g></g><g transform="translate(-214,-6) scale(1,1)"><g><path fill="none" stroke="none"/><text fill="#000000" stroke="none" font-family="Arial" font-size="13px" font-style="normal" font-weight="normal" text-decoration="none" x="533" y="295.5">+matrizIMenos</text></g></g><g transform="translate(-214,-6) scale(1,1)"><g><path fill="none" stroke="none"/><text fill="#000000" stroke="none" font-family="Arial" font-size="13px" font-style="normal" font-weight="normal" text-decoration="none" x="533" y="310.5">+testOutput</text></g></g><g transform="translate(-214,-6) scale(1,1)"><rect fill="#C0C0C0" stroke="none" x="231" y="143" width="163.248046875" height="312" opacity="0.2"/></g><g transform="translate(-214,-6) scale(1,1)"><rect fill="#ffffff" stroke="none" x="224" y="136" width="163.248046875" height="312"/></g><g transform="translate(-214,-6) scale(1,1)"><path fill="none" stroke="#000000" d="M 224 136 L 387.248046875 136 L 387.248046875 448 L 224 448 L 224 136 Z Z" stroke-miterlimit="10"/></g><g transform="translate(-214,-6) scale(1,1)"><path fill="none" stroke="#000000" d="M 224 161 L 387.248046875 161" stroke-miterlimit="10"/></g><g transform="translate(-214,-6) scale(1,1)"><path fill="none" stroke="#000000" d="M 224 304 L 387.248046875 304" stroke-miterlimit="10"/></g><g transform="translate(-214,-6) scale(1,1)"><g><path fill="none" stroke="none"/><text fill="#000000" stroke="none" font-family="Arial" font-size="13px" font-style="normal" font-weight="bold" text-decoration="none" x="283.949951171875" y="155.5">Monitor</text></g></g><g transform="translate(-214,-6) scale(1,1)"><g><path fill="none" stroke="none"/><text fill="#000000" stroke="none" font-family="Arial" font-size="13px" font-style="normal" font-weight="normal" text-decoration="none" x="229" y="178.5">+matrizMas</text></g></g><g transform="translate(-214,-6) scale(1,1)"><g><path fill="none" stroke="none"/><text fill="#000000" stroke="none" font-family="Arial" font-size="13px" font-style="normal" font-weight="normal" text-decoration="none" x="229" y="193.5">+matrizMenos</text></g></g><g transform="translate(-214,-6) scale(1,1)"><g><path fill="none" stroke="none"/><text fill="#000000" stroke="none" font-family="Arial" font-size="13px" font-style="normal" font-weight="normal" text-decoration="none" x="229" y="208.5">+matrizInhibicion</text></g></g><g transform="translate(-214,-6) scale(1,1)"><g><path fill="none" stroke="none"/><text fill="#000000" stroke="none" font-family="Arial" font-size="13px" font-style="normal" font-weight="normal" text-decoration="none" x="229" y="223.5">+marcado</text></g></g><g transform="translate(-214,-6) scale(1,1)"><g><path fill="none" stroke="none"/><text fill="#000000" stroke="none" font-family="Arial" font-size="13px" font-style="normal" font-weight="normal" text-decoration="none" x="229" y="238.5">+marcadoInicial</text></g></g><g transform="translate(-214,-6) scale(1,1)"><g><path fill="none" stroke="none"/><text fill="#000000" stroke="none" font-family="Arial" font-size="13px" font-style="normal" font-weight="normal" text-decoration="none" x="229" y="253.5">+plazas</text></g></g><g transform="translate(-214,-6) scale(1,1)"><g><path fill="none" stroke="none"/><text fill="#000000" stroke="none" font-family="Arial" font-size="13px" font-style="normal" font-weight="normal" text-decoration="none" x="229" y="268.5">+transiciones</text></g></g><g transform="translate(-214,-6) scale(1,1)"><g><path fill="none" stroke="none"/><text fill="#000000" stroke="none" font-family="Arial" font-size="13px" font-style="normal" font-weight="normal" text-decoration="none" x="229" y="283.5">+colaCondicion</text></g></g><g transform="translate(-214,-6) scale(1,1)"><g><path fill="none" stroke="none"/><text fill="#000000" stroke="none" font-family="Arial" font-size="13px" font-style="normal" font-weight="normal" text-decoration="none" x="229" y="298.5">+ReentrantLock</text></g></g><g transform="translate(-214,-6) scale(1,1)"><g><path fill="none" stroke="none"/><text fill="#000000" stroke="none" font-family="Arial" font-size="13px" font-style="normal" font-weight="normal" text-decoration="none" x="229" y="321.5">+continuarRecorridoTren()</text></g></g><g transform="translate(-214,-6) scale(1,1)"><g><path fill="none" stroke="none"/><text fill="#000000" stroke="none" font-family="Arial" font-size="13px" font-style="normal" font-weight="normal" text-decoration="none" x="229" y="336.5">+abordarTren()</text></g></g><g transform="translate(-214,-6) scale(1,1)"><g><path fill="none" stroke="none"/><text fill="#000000" stroke="none" font-family="Arial" font-size="13px" font-style="normal" font-weight="normal" text-decoration="none" x="229" y="351.5">+descenderTren()</text></g></g><g transform="translate(-214,-6) scale(1,1)"><g><path fill="none" stroke="none"/><text fill="#000000" stroke="none" font-family="Arial" font-size="13px" font-style="normal" font-weight="normal" text-decoration="none" x="229" y="366.5">+cruzarPasoNivel()</text></g></g><g transform="translate(-214,-6) scale(1,1)"><g><path fill="none" stroke="none"/><text fill="#000000" stroke="none" font-family="Arial" font-size="13px" font-style="normal" font-weight="normal" text-decoration="none" x="229" y="381.5">+partidaTren()</text></g></g><g transform="translate(-214,-6) scale(1,1)"><g><path fill="none" stroke="none"/><text fill="#000000" stroke="none" font-family="Arial" font-size="13px" font-style="normal" font-weight="normal" text-decoration="none" x="229" y="396.5">+arriboTrenEstacion()</text></g></g><g transform="translate(-214,-6) scale(1,1)"><g><path fill="none" stroke="none"/><text fill="#000000" stroke="none" font-family="Arial" font-size="13px" font-style="normal" font-weight="normal" text-decoration="none" x="229" y="411.5">+liberarBarreraPasoNivel()</text></g></g><g transform="translate(-214,-6) scale(1,1)"><g><path fill="none" stroke="none"/><text fill="#000000" stroke="none" font-family="Arial" font-size="13px" font-style="normal" font-weight="normal" text-decoration="none" x="229" y="426.5">+generarPasajeros()</text></g></g><g transform="translate(-214,-6) scale(1,1)"><g><path fill="none" stroke="none"/><text fill="#000000" stroke="none" font-family="Arial" font-size="13px" font-style="normal" font-weight="normal" text-decoration="none" x="229" y="441.5">+generarTransito()</text></g></g><g transform="translate(-214,-6) scale(1,1)"><rect fill="#C0C0C0" stroke="none" x="847" y="23" width="136" height="88" opacity="0.2"/></g><g transform="translate(-214,-6) scale(1,1)"><rect fill="#ffffff" stroke="none" x="840" y="16" width="136" height="88"/></g><g transform="translate(-214,-6) scale(1,1)"><path fill="none" stroke="#000000" d="M 840 16 L 976 16 L 976 104 L 840 104 L 840 16 Z Z" stroke-miterlimit="10"/></g><g transform="translate(-214,-6) scale(1,1)"><path fill="none" stroke="#000000" d="M 840 41 L 976 41" stroke-miterlimit="10"/></g><g transform="translate(-214,-6) scale(1,1)"><path fill="none" stroke="#000000" d="M 840 79 L 976 79" stroke-miterlimit="10"/></g><g transform="translate(-214,-6) scale(1,1)"><g><path fill="none" stroke="none"/><text fill="#000000" stroke="none" font-family="Arial" font-size="13px" font-style="normal" font-weight="bold" text-decoration="none" x="894.635009765625" y="35.5">Tren</text></g></g><g transform="translate(-214,-6) scale(1,1)"><g><path fill="none" stroke="none"/><text fill="#000000" stroke="none" font-family="Arial" font-size="13px" font-style="normal" font-weight="normal" text-decoration="none" x="845" y="58.5">+monitorTren</text></g></g><g transform="translate(-214,-6) scale(1,1)"><g><path fill="none" stroke="none"/><text fill="#000000" stroke="none" font-family="Arial" font-size="13px" font-style="normal" font-weight="normal" text-decoration="none" x="845" y="73.5">+Tren</text></g></g><g transform="translate(-214,-6) scale(1,1)"><g><path fill="none" stroke="none"/><text fill="#000000" stroke="none" font-family="Arial" font-size="13px" font-style="normal" font-weight="normal" text-decoration="none" x="845" y="96.5">+run()</text></g></g><g transform="translate(-214,-6) scale(1,1)"><rect fill="#C0C0C0" stroke="none" x="231" y="495" width="164.009765625" height="88" opacity="0.2"/></g><g transform="translate(-214,-6) scale(1,1)"><rect fill="#ffffff" stroke="none" x="224" y="488" width="164.009765625" height="88"/></g><g transform="translate(-214,-6) scale(1,1)"><path fill="none" stroke="#000000" d="M 224 488 L 388.009765625 488 L 388.009765625 576 L 224 576 L 224 488 Z Z" stroke-miterlimit="10"/></g><g transform="translate(-214,-6) scale(1,1)"><path fill="none" stroke="#000000" d="M 224 513 L 388.009765625 513" stroke-miterlimit="10"/></g><g transform="translate(-214,-6) scale(1,1)"><path fill="none" stroke="#000000" d="M 224 551 L 388.009765625 551" stroke-miterlimit="10"/></g><g transform="translate(-214,-6) scale(1,1)"><g><path fill="none" stroke="none"/><text fill="#000000" stroke="none" font-family="Arial" font-size="13px" font-style="normal" font-weight="bold" text-decoration="none" x="261.9267578125" y="507.5">SubirPasajeros</text></g></g><g transform="translate(-214,-6) scale(1,1)"><g><path fill="none" stroke="none"/><text fill="#000000" stroke="none" font-family="Arial" font-size="13px" font-style="normal" font-weight="normal" text-decoration="none" x="229" y="530.5">+monitorTren</text></g></g><g transform="translate(-214,-6) scale(1,1)"><g><path fill="none" stroke="none"/><text fill="#000000" stroke="none" font-family="Arial" font-size="13px" font-style="normal" font-weight="normal" text-decoration="none" x="229" y="545.5">+SubirPasajeros</text></g></g><g transform="translate(-214,-6) scale(1,1)"><g><path fill="none" stroke="none"/><text fill="#000000" stroke="none" font-family="Arial" font-size="13px" font-style="normal" font-weight="normal" text-decoration="none" x="229" y="568.5">+run()</text></g></g><g transform="translate(-214,-6) scale(1,1)"><rect fill="#C0C0C0" stroke="none" x="847" y="495" width="136" height="88" opacity="0.2"/></g><g transform="translate(-214,-6) scale(1,1)"><rect fill="#ffffff" stroke="none" x="840" y="488" width="136" height="88"/></g><g transform="translate(-214,-6) scale(1,1)"><path fill="none" stroke="#000000" d="M 840 488 L 976 488 L 976 576 L 840 576 L 840 488 Z Z" stroke-miterlimit="10"/></g><g transform="translate(-214,-6) scale(1,1)"><path fill="none" stroke="#000000" d="M 840 513 L 976 513" stroke-miterlimit="10"/></g><g transform="translate(-214,-6) scale(1,1)"><path fill="none" stroke="#000000" d="M 840 551 L 976 551" stroke-miterlimit="10"/></g><g transform="translate(-214,-6) scale(1,1)"><g><path fill="none" stroke="none"/><text fill="#000000" stroke="none" font-family="Arial" font-size="13px" font-style="normal" font-weight="bold" text-decoration="none" x="863.921875" y="507.5">BajarPasajeros</text></g></g><g transform="translate(-214,-6) scale(1,1)"><g><path fill="none" stroke="none"/><text fill="#000000" stroke="none" font-family="Arial" font-size="13px" font-style="normal" font-weight="normal" text-decoration="none" x="845" y="530.5">+monitorTren</text></g></g><g transform="translate(-214,-6) scale(1,1)"><g><path fill="none" stroke="none"/><text fill="#000000" stroke="none" font-family="Arial" font-size="13px" font-style="normal" font-weight="normal" text-decoration="none" x="845" y="545.5">+BajarPasajeros</text></g></g><g transform="translate(-214,-6) scale(1,1)"><g><path fill="none" stroke="none"/><text fill="#000000" stroke="none" font-family="Arial" font-size="13px" font-style="normal" font-weight="normal" text-decoration="none" x="845" y="568.5">+run()</text></g></g><g transform="translate(-214,-6) scale(1,1)"><rect fill="#C0C0C0" stroke="none" x="231" y="23" width="162.56884765625" height="88" opacity="0.2"/></g><g transform="translate(-214,-6) scale(1,1)"><rect fill="#ffffff" stroke="none" x="224" y="16" width="162.56884765625" height="88"/></g><g transform="translate(-214,-6) scale(1,1)"><path fill="none" stroke="#000000" d="M 224 16 L 386.56884765625 16 L 386.56884765625 104 L 224 104 L 224 16 Z Z" stroke-miterlimit="10"/></g><g transform="translate(-214,-6) scale(1,1)"><path fill="none" stroke="#000000" d="M 224 41 L 386.56884765625 41" stroke-miterlimit="10"/></g><g transform="translate(-214,-6) scale(1,1)"><path fill="none" stroke="#000000" d="M 224 79 L 386.56884765625 79" stroke-miterlimit="10"/></g><g transform="translate(-214,-6) scale(1,1)"><g><path fill="none" stroke="none"/><text fill="#000000" stroke="none" font-family="Arial" font-size="13px" font-style="normal" font-weight="bold" text-decoration="none" x="276.021728515625" y="35.5">PasoNivel</text></g></g><g transform="translate(-214,-6) scale(1,1)"><g><path fill="none" stroke="none"/><text fill="#000000" stroke="none" font-family="Arial" font-size="13px" font-style="normal" font-weight="normal" text-decoration="none" x="229" y="58.5">+monitorTren</text></g></g><g transform="translate(-214,-6) scale(1,1)"><g><path fill="none" stroke="none"/><text fill="#000000" stroke="none" font-family="Arial" font-size="13px" font-style="normal" font-weight="normal" text-decoration="none" x="229" y="73.5">+PasoNivel</text></g></g><g transform="translate(-214,-6) scale(1,1)"><g><path fill="none" stroke="none"/><text fill="#000000" stroke="none" font-family="Arial" font-size="13px" font-style="normal" font-weight="normal" text-decoration="none" x="229" y="96.5">+run()</text></g></g><g transform="translate(-214,-6) scale(1,1)"><rect fill="#C0C0C0" stroke="none" x="847" y="215" width="136" height="120" opacity="0.2"/></g><g transform="translate(-214,-6) scale(1,1)"><rect fill="#ffffff" stroke="none" x="840" y="208" width="136" height="120"/></g><g transform="translate(-214,-6) scale(1,1)"><path fill="none" stroke="#000000" d="M 840 208 L 976 208 L 976 328 L 840 328 L 840 208 Z Z" stroke-miterlimit="10"/></g><g transform="translate(-214,-6) scale(1,1)"><path fill="none" stroke="#000000" d="M 840 233 L 976 233" stroke-miterlimit="10"/></g><g transform="translate(-214,-6) scale(1,1)"><path fill="none" stroke="#000000" d="M 840 243 L 976 243" stroke-miterlimit="10"/></g><g transform="translate(-214,-6) scale(1,1)"><g><path fill="none" stroke="none"/><text fill="#000000" stroke="none" font-family="Arial" font-size="13px" font-style="normal" font-weight="bold" text-decoration="none" x="887.405029296875" y="227.5">Thread</text></g></g><g transform="translate(-214,-6) scale(1,1)"><g><path fill="none" stroke="none"/><text fill="#000000" stroke="none" font-family="Arial" font-size="13px" font-style="normal" font-weight="normal" text-decoration="none" x="845" y="260.5">+start()</text></g></g><g transform="translate(-214,-6) scale(1,1)"><g><path fill="none" stroke="none"/><text fill="#000000" stroke="none" font-family="Arial" font-size="13px" font-style="normal" font-weight="normal" text-decoration="none" x="845" y="275.5">+wait()</text></g></g><g transform="translate(-214,-6) scale(1,1)"><g><path fill="none" stroke="none"/><text fill="#000000" stroke="none" font-family="Arial" font-size="13px" font-style="normal" font-weight="normal" text-decoration="none" x="845" y="290.5">+notify()</text></g></g><g transform="translate(-214,-6) scale(1,1)"><g><path fill="none" stroke="none"/><text fill="#000000" stroke="none" font-family="Arial" font-size="13px" font-style="normal" font-weight="normal" text-decoration="none" x="845" y="305.5">+setName()</text></g></g><g transform="translate(-214,-6) scale(1,1)"><g><path fill="none" stroke="none"/><text fill="#000000" stroke="none" font-family="Arial" font-size="13px" font-style="normal" font-weight="normal" text-decoration="none" x="845" y="320.5">+getName()</text></g></g><g transform="translate(-214,-6) scale(1,1)"><path fill="none" stroke="#000000" d="M 388 88 L 839 244" stroke-miterlimit="10"/></g><g transform="translate(-214,-6) scale(1,1)"><path fill="#FFFFFF" stroke="none" d="M 817.0391713835479 245.3122524447762 L 839 244 L 822.5434465625013 229.39925176716105"/></g><g transform="translate(-214,-6) scale(1,1)"><path fill="none" stroke="#000000" d="M 817.0391713835479 245.3122524447762 L 839 244 L 822.5434465625013 229.39925176716105 L 817.0391713835479 245.3122524447762" stroke-miterlimit="10"/></g><g transform="translate(-214,-6) scale(1,1)"><path fill="none" stroke="#000000" d="M 908 487 L 908 329" stroke-miterlimit="10"/></g><g transform="translate(-214,-6) scale(1,1)"><path fill="#FFFFFF" stroke="none" d="M 916.419035512032 349.3253497152483 L 908 329 L 899.580964487968 349.3253497152483"/></g><g transform="translate(-214,-6) scale(1,1)"><path fill="none" stroke="#000000" d="M 916.419035512032 349.3253497152483 L 908 329 L 899.580964487968 349.3253497152483 L 916.419035512032 349.3253497152483" stroke-miterlimit="10"/></g><g transform="translate(-214,-6) scale(1,1)"><path fill="none" stroke="#000000" d="M 389 496 L 839 298" stroke-miterlimit="10"/></g><g transform="translate(-214,-6) scale(1,1)"><path fill="#FFFFFF" stroke="none" d="M 823.7865725619556 313.89187294145523 L 839 298 L 817.0052311708113 298.4797334161273"/></g><g transform="translate(-214,-6) scale(1,1)"><path fill="none" stroke="#000000" d="M 823.7865725619556 313.89187294145523 L 839 298 L 817.0052311708113 298.4797334161273 L 823.7865725619556 313.89187294145523" stroke-miterlimit="10"/></g><g transform="translate(-214,-6) scale(1,1)"><path fill="none" stroke="#000000" d="M 839 87 L 388 260" stroke-miterlimit="10"/></g><g transform="translate(-214,-6) scale(1,1)"><path fill="#FFFFFF" stroke="none" d="M 395.9809131873059 252.42999176376355 L 388 260 L 398.9961619922859 260.2905536773243 L 408.54063815875253 252.12077516305058"/></g><g transform="translate(-214,-6) scale(1,1)"><path fill="none" stroke="#000000" d="M 395.9809131873059 252.42999176376355 L 388 260 L 398.9961619922859 260.2905536773243 L 408.54063815875253 252.12077516305058 L 395.9809131873059 252.42999176376355" stroke-miterlimit="10"/></g><g transform="translate(-214,-6) scale(1,1)"><path fill="none" stroke="#000000" d="M 306 487 L 306 449" stroke-miterlimit="10"/></g><g transform="translate(-214,-6) scale(1,1)"><path fill="#FFFFFF" stroke="none" d="M 310.209517756016 459.16267485762415 L 306 449 L 301.790482243984 459.16267485762415 L 306 471"/></g><g transform="translate(-214,-6) scale(1,1)"><path fill="none" stroke="#000000" d="M 310.209517756016 459.16267485762415 L 306 449 L 301.790482243984 459.16267485762415 L 306 471 L 310.209517756016 459.16267485762415" stroke-miterlimit="10"/></g><g transform="translate(-214,-6) scale(1,1)"><path fill="none" stroke="#000000" d="M 839 505 L 388 325" stroke-miterlimit="10"/></g><g transform="translate(-214,-6) scale(1,1)"><path fill="#FFFFFF" stroke="none" d="M 398.999076577237 324.85747123772455 L 388 325 L 395.8783046888735 332.67673858023534 L 408.43273024438383 333.15496994232615"/></g><g transform="translate(-214,-6) scale(1,1)"><path fill="none" stroke="#000000" d="M 398.999076577237 324.85747123772455 L 388 325 L 395.8783046888735 332.67673858023534 L 408.43273024438383 333.15496994232615 L 398.999076577237 324.85747123772455" stroke-miterlimit="10"/></g><g transform="translate(-214,-6) scale(1,1)"><path fill="none" stroke="#000000" d="M 305 105 L 305 135" stroke-miterlimit="10"/></g><g transform="translate(-214,-6) scale(1,1)"><path fill="#FFFFFF" stroke="none" d="M 300.790482243984 124.83732514237585 L 305 135 L 309.209517756016 124.83732514237585 L 305 113"/></g><g transform="translate(-214,-6) scale(1,1)"><path fill="none" stroke="#000000" d="M 300.790482243984 124.83732514237585 L 305 135 L 309.209517756016 124.83732514237585 L 305 113 L 300.790482243984 124.83732514237585" stroke-miterlimit="10"/></g><g transform="translate(-214,-6) scale(1,1)"><path fill="none" stroke="#000000" d="M 357 487 L 537 329" stroke-miterlimit="10"/></g><g transform="translate(-214,-6) scale(1,1)"><path fill="none" stroke="#000000" d="M 370 105 L 527 213" stroke-miterlimit="10"/></g><g transform="translate(-214,-6) scale(1,1)"><path fill="none" stroke="#000000" d="M 857 487 L 677 329" stroke-miterlimit="10"/></g><g transform="translate(-214,-6) scale(1,1)"><path fill="none" stroke="#000000" d="M 843 105 L 688 212" stroke-miterlimit="10"/></g><g transform="translate(-214,-6) scale(1,1)"><path fill="none" stroke="#000000" d="M 388 285 L 527 274" stroke-miterlimit="10"/></g><g transform="translate(-214,-6) scale(1,1)"><rect fill="#C0C0C0" stroke="none" x="535" y="23" width="160" height="88" opacity="0.2"/></g><g transform="translate(-214,-6) scale(1,1)"><rect fill="#ffffff" stroke="none" x="528" y="16" width="160" height="88"/></g><g transform="translate(-214,-6) scale(1,1)"><path fill="none" stroke="#000000" d="M 528 16 L 688 16 L 688 104 L 528 104 L 528 16 Z Z" stroke-miterlimit="10"/></g><g transform="translate(-214,-6) scale(1,1)"><path fill="none" stroke="#000000" d="M 528 41 L 688 41" stroke-miterlimit="10"/></g><g transform="translate(-214,-6) scale(1,1)"><path fill="none" stroke="#000000" d="M 528 79 L 688 79" stroke-miterlimit="10"/></g><g transform="translate(-214,-6) scale(1,1)"><g><path fill="none" stroke="none"/><text fill="#000000" stroke="none" font-family="Arial" font-size="13px" font-style="normal" font-weight="bold" text-decoration="none" x="576.925048828125" y="35.5">Generador</text></g></g><g transform="translate(-214,-6) scale(1,1)"><g><path fill="none" stroke="none"/><text fill="#000000" stroke="none" font-family="Arial" font-size="13px" font-style="normal" font-weight="normal" text-decoration="none" x="533" y="58.5">+monitorTren</text></g></g><g transform="translate(-214,-6) scale(1,1)"><g><path fill="none" stroke="none"/><text fill="#000000" stroke="none" font-family="Arial" font-size="13px" font-style="normal" font-weight="normal" text-decoration="none" x="533" y="73.5">+Generador</text></g></g><g transform="translate(-214,-6) scale(1,1)"><g><path fill="none" stroke="none"/><text fill="#000000" stroke="none" font-family="Arial" font-size="13px" font-style="normal" font-weight="normal" text-decoration="none" x="533" y="96.5">+run()</text></g></g><g transform="translate(-214,-6) scale(1,1)"><path fill="none" stroke="#000000" d="M 673 105 L 839 220" stroke-miterlimit="10"/></g><g transform="translate(-214,-6) scale(1,1)"><path fill="#FFFFFF" stroke="none" d="M 817.4979136740509 215.34593901722042 L 839 220 L 827.086647030242 201.50481086828367"/></g><g transform="translate(-214,-6) scale(1,1)"><path fill="none" stroke="#000000" d="M 817.4979136740509 215.34593901722042 L 839 220 L 827.086647030242 201.50481086828367 L 817.4979136740509 215.34593901722042" stroke-miterlimit="10"/></g><g transform="translate(-214,-6) scale(1,1)"><path fill="none" stroke="#000000" d="M 908 105 L 908 207" stroke-miterlimit="10"/></g><g transform="translate(-214,-6) scale(1,1)"><path fill="#FFFFFF" stroke="none" d="M 899.580964487968 186.6746502847517 L 908 207 L 916.419035512032 186.6746502847517"/></g><g transform="translate(-214,-6) scale(1,1)"><path fill="none" stroke="#000000" d="M 899.580964487968 186.6746502847517 L 908 207 L 916.419035512032 186.6746502847517 L 899.580964487968 186.6746502847517" stroke-miterlimit="10"/></g></g></svg>